<svg xmlns="http://www.w3.org/2000/svg" xmlns:xlink="http://www.w3.org/1999/xlink" viewBox="0 0 20 20"><symbol viewBox="0 0 20 20" id="dashicons-admin-appearance"><title>admin-appearance</title><path d="M14.48 11.06L7.41 3.99l1.5-1.5q.25-.28.85-.345t1.34.11 1.32.555q.45.3 1.265.97t1.645 1.13q.43.24.73.38t.765.305.875.23.955.06 1.125-.125zm-.71.71L6.7 4.7 4.93 6.47q-.29.29-.29.705t.29.705l1.06 1.06q.29.29.29.71t-.29.71q-.27.27-.615.54t-.86.63-.735.52q-.66.49-1.01.84-.52.52-.92 1.085t-.64 1.13-.205 1.085.395.88.88.395 1.085-.205 1.13-.635 1.085-.915q.34-.34.85-1.02.13-.17.51-.72t.64-.885.54-.605q.29-.29.705-.29t.705.29l1.06 1.06q.29.29.705.29t.705-.29z"/></symbol><symbol viewBox="0 0 20 20" id="dashicons-admin-collapse"><title>admin-collapse</title><path d="M10 2.16q1.6 0 3.05.62t2.5 1.67 1.67 2.5.62 3.05-.62 3.05-1.67 2.5-2.5 1.67-3.05.62-3.05-.62-2.5-1.67-1.67-2.5T2.16 10q0-2.13 1.06-3.935T6.085 3.21 10 2.16zm2 11.72V6.12L6.18 9.97z"/></symbol><symbol viewBox="0 0 20 20" id="dashicons-admin-comments"><title>admin-comments</title><path d="M5 2h9q.82 0 1.41.59T16 4v7q0 .82-.59 1.41T14 13h-2l-5 5v-5H5q-.82 0-1.41-.59T3 11V4q0-.82.59-1.41T5 2z"/></symbol><symbol viewBox="0 0 20 20" id="dashicons-admin-generic"><title>admin-generic</title><path d="M18 12h-2.18q-.26 1.07-.81 1.93l1.54 1.54-2.1 2.1-1.54-1.54q-.88.55-1.91.79V19H8v-2.18q-1.03-.24-1.91-.79l-1.54 1.54-2.12-2.12 1.54-1.54q-.55-.88-.79-1.91H1V9.03h2.17q.23-1.01.8-1.94L2.43 5.55l2.1-2.1 1.54 1.54q.85-.54 1.93-.81V2h3v2.18q1.03.24 1.91.79l1.54-1.54 2.12 2.12-1.54 1.54q.57.93.8 1.94H18V12zm-8.5 1.5q1.24 0 2.12-.88t.88-2.12-.88-2.12T9.5 7.5t-2.12.88-.88 2.12.88 2.12 2.12.88z"/></symbol><symbol viewBox="0 0 20 20" id="dashicons-admin-home"><title>admin-home</title><path d="M16 8.5l1.53 1.53-1.06 1.06L10 4.62l-6.47 6.47-1.06-1.06L10 2.5l4 4v-2h2v4zm-6-2.46l6 5.99V18H4v-5.97zM12 17v-5H8v5h4z"/></symbol><symbol viewBox="0 0 20 20" id="dashicons-admin-links"><title>admin-links</title><path d="M17.74 2.76Q19 4.03 19 5.81t-1.26 3.05l-1.53 1.52q-.82.82-1.95 1.105t-2.19-.015l2.62-2.61.76-.77.76-.76q.63-.63.63-1.52t-.63-1.52q-.63-.64-1.52-.64t-1.52.64l-.77.76-3.38 3.38q-.29-1.06-.005-2.19t1.105-1.95l1.52-1.53q1.27-1.26 3.055-1.26t3.045 1.26zM8.59 13.43l5.34-5.34q.31-.31.31-.76t-.31-.76q-.34-.32-.78-.31t-.75.31l-5.33 5.34q-.31.31-.31.76t.31.76q.34.32.78.31t.74-.31zm-.76 2.29l4.14-4.15q.3 1.06.015 2.19t-1.105 1.95l-1.52 1.53Q8.09 18.5 6.31 18.5t-3.05-1.26Q2 15.98 2 14.19t1.26-3.05l1.53-1.52q.82-.82 1.95-1.105t2.19.005l-4.14 4.15q-.64.63-.64 1.52t.64 1.53q.63.63 1.52.63t1.52-.63z"/></symbol><symbol viewBox="0 0 20 20" id="dashicons-admin-media"><title>admin-media</title><path d="M13 11V4q0-.41-.295-.705T12 3h-1.67L9 1H5L3.67 3H2q-.41 0-.705.295T1 4v7q0 .41.295.705T2 12h10q.41 0 .705-.295T13 11zM7 4.5q1.04 0 1.77.73T9.5 7t-.73 1.77T7 9.5t-1.77-.73T4.5 7t.73-1.77T7 4.5zM14 6h5v10.5q0 1.04-.73 1.77T16.5 19t-1.77-.73T14 16.5t.73-1.77T16.5 14q.23 0 .5.05V9h-3V6zm-4 8.05V13h2v3.5q0 1.04-.73 1.77T9.5 19t-1.77-.73T7 16.5t.73-1.77T9.5 14q.23 0 .5.05z"/></symbol><symbol viewBox="0 0 20 20" id="dashicons-admin-network"><title>admin-network</title><path d="M16.95 2.58q.96.96 1.305 2.25t0 2.575T16.95 9.65q-1.12 1.12-2.675 1.385t-2.915-.375l-1.87 3.31-2.99.31L5 18H2l-1-2 7.95-7.69q-.71-1.39-.465-2.985T9.88 2.58q.96-.96 2.25-1.305t2.575 0T16.95 2.58zm-2.51 3.79q.55 0 .94-.39t.39-.95q0-.55-.39-.94t-.94-.39-.94.39-.39.94.39.945.94.395z"/></symbol><symbol viewBox="0 0 20 20" id="dashicons-admin-page"><title>admin-page</title><path d="M6 15V2h10v13H6zm-1 1h8v2H3V5h2v11z"/></symbol><symbol viewBox="0 0 20 20" id="dashicons-admin-plugins"><title>admin-plugins</title><path d="M13.11 4.36L9.87 7.6 8 5.73l3.24-3.24q.26-.26.72-.165t.84.485q.39.38.48.835t-.17.715zm-8 1.77l.91-1.12 9.01 9.01-1.19.84q-.5.5-1.675.83t-2.145.33H6.14L4.9 17.26q-.44.44-1.06.44t-1.06-.44q-.44-.43-.44-1.055t.44-1.065l1.24-1.24v-3.88q0-.96.305-2.18t.785-1.71zm7.26 3.97l3.24-3.24q.25-.26.71-.17t.84.48q.39.38.48.835t-.17.715l-3.24 3.25z"/></symbol><symbol viewBox="0 0 20 20" id="dashicons-admin-post"><title>admin-post</title><path d="M10.44 3.02l1.82-1.82 6.36 6.35-1.83 1.82q-.78-.52-1.75-.425t-1.66.785l-.75.75q-.68.69-.775 1.655t.425 1.755l-1.83 1.82-2.41-2.41-2.8 2.79q-.54.54-2.035 1.55t-1.765.74.74-1.775 1.54-2.035l2.79-2.79L4.1 9.36l1.83-1.82q.78.52 1.75.425t1.65-.785l.75-.75q.69-.68.785-1.65t-.425-1.76z"/></symbol><symbol viewBox="0 0 20 20" id="dashicons-admin-settings"><title>admin-settings</title><path d="M18 16V4q0-.41-.295-.705T17 3H4q-.41 0-.705.295T3 4v12q0 .41.295.705T4 17h13q.41 0 .705-.295T18 16zM8 11h1q.41 0 .705.295T10 12t-.295.705T9 13H8v1.5q0 .21-.145.355T7.5 15t-.355-.145T7 14.5V13H6q-.41 0-.705-.295T5 12t.295-.705T6 11h1V5.5q0-.21.145-.355T7.5 5t.355.145T8 5.5V11zm5-2h-1q-.41 0-.705-.295T11 8t.295-.705T12 7h1V5.5q0-.21.145-.355T13.5 5t.355.145T14 5.5V7h1q.41 0 .705.295T16 8t-.295.705T15 9h-1v5.5q0 .21-.145.355T13.5 15t-.355-.145T13 14.5V9z"/></symbol><symbol viewBox="0 0 20 20" id="dashicons-admin-site"><title>admin-site</title><path d="M19 10q0-1.83-.715-3.495t-1.92-2.87-2.87-1.92T10 1t-3.495.715-2.87 1.92-1.92 2.87T1 10t.715 3.495 1.92 2.87 2.87 1.92T10 19t3.495-.715 2.87-1.92 1.92-2.87T19 10zm-11 .1q-3.78-.39-5.48-2.29.74-2.4 2.715-3.96T9.77 2.18q-.33.55-.56 1.26t-.32 1.49.12 1.545.73 1.275q-.35.05-.69-.06t-.585-.3-.51-.4-.455-.36-.43-.175-.44.145q-.88.69-.42 1.5.5.88 2.28 1.44.62.2 1.34.33.97.17 1.645.405t1.065.495.6.625.27.71.05.845q-.06 2.98-4.06 4.7.02-.86-.115-1.53t-.38-1.09-.55-.735-.635-.52-.625-.37-.54-.365-.355-.43q.1-.42.185-.675t.275-.615.52-.66.82-.56zm8.49-4.32q.31.48.545.975t.385.925.23.89.115.81.015.755-.045.66-.1.585-.115.465-.12.375l-.07.24q-.21-.51-.52-.955t-.605-.745-.575-.58-.505-.6-.325-.66q-.39-1.37 1.69-3.14z"/></symbol><symbol viewBox="0 0 20 20" id="dashicons-admin-tools"><title>admin-tools</title><path d="M16.68 9.77q-.99.99-2.36 1.25t-2.59-.26l-5.41 6.52q-.74.74-1.79.74t-1.79-.74T2 15.49t.74-1.78l6.52-5.42Q8.74 7.07 9 5.7t1.25-2.36q.94-.94 2.24-1.22t2.48.16l-2.89 2.89 2.82 2.82 2.86-2.87q.41 1.17.13 2.445T16.68 9.77zM3.81 16.21q.3.29.72.29t.71-.29q.3-.3.3-.72t-.3-.71q-.29-.3-.71-.3t-.72.3q-.29.29-.29.71t.29.72z"/></symbol><symbol viewBox="0 0 20 20" id="dashicons-admin-users"><title>admin-users</title><path d="M10 9.25q-.46 0-.865-.19t-.675-.495-.49-.67-.345-.73-.21-.67T7.3 6l-.03-.19q-.06-.55-.03-1.085t.245-1.03.53-.87.825-.6T9.97 2q1.03 0 1.71.59t.91 1.44.09 1.78q-.01.07-.03.195t-.105.48-.205.68-.335.725-.48.685-.665.48-.86.195zm0 2.42l2.72-1.82q1.16 0 2.215.67t1.68 1.72.625 2.14v2.49q-.15.05-.415.125t-1.09.27-1.645.345-1.95.27T10 18q-1.02 0-2.145-.115t-1.995-.28-1.595-.335-1.115-.29l-.39-.11v-2.49q0-1.12.58-2.15t1.625-1.68T7.23 9.9z"/></symbol><symbol viewBox="0 0 20 20" id="dashicons-align-center"><title>align-center</title><path d="M0 3h20v14H0V3zm19 4V5H1v2h18zm-4 5V8H5v4h10zM4 11V9H1v2h3zm15 0V9h-3v2h3zm0 4v-2H1v2h18z"/></symbol><symbol viewBox="0 0 20 20" id="dashicons-align-left"><title>align-left</title><path d="M0 3.2h20v14H0v-14zm19 4v-2H1v2h18zm-8 5v-4H1v4h10zm8-1v-2h-7v2h7zm0 4v-2H1v2h18z"/></symbol><symbol viewBox="0 0 20 20" id="dashicons-align-none"><title>align-none</title><path d="M0 3.2h20v14H0v-14zm15 9v-4H5v4h10z"/></symbol><symbol viewBox="0 0 20 20" id="dashicons-align-right"><title>align-right</title><path d="M0 3.2h20v14H0v-14zm19 4v-2H1v2h18zm0 5v-4H9v4h10zm-11-1v-2H1v2h7zm11 4v-2H1v2h18z"/></symbol><symbol viewBox="0 0 20 20" id="dashicons-analytics"><title>analytics</title><path d="M18 18V2H2v16h16zM16 5H4V4h12v1zM7 7v3h3q0 1.24-.88 2.12T7 13t-2.12-.88T4 10t.88-2.12T7 7zm1 2V7q.82 0 1.41.59T10 9H8zm8-1h-4V7h4v1zm0 3h-4V9h4v2zm0 2h-4v-1h4v1zm0 3H4v-1h12v1z"/></symbol><symbol viewBox="0 0 20 20" id="dashicons-archive"><title>archive</title><path d="M19 4v2H1V4h18zM2 7h16v10H2V7zm11 3V9H7v1h6z"/></symbol><symbol viewBox="0 0 20 20" id="dashicons-arrow-down-alt"><title>arrow-down-alt</title><path d="M9 2h2v12l4-4 2 1-7 7-7-7 2-1 4 4V2z"/></symbol><symbol viewBox="0 0 20 20" id="dashicons-arrow-down-alt2"><title>arrow-down-alt2</title><path d="M5 6l5 5 5-5 2 1-7 7-7-7z"/></symbol><symbol viewBox="0 0 20 20" id="dashicons-arrow-down"><title>arrow-down</title><path d="M15 8l-4.03 6L7 8h8z"/></symbol><symbol viewBox="0 0 20 20" id="dashicons-arrow-left-alt"><title>arrow-left-alt</title><path d="M18 9v2H6l4 4-1 2-7-7 7-7 1 2-4 4h12z"/></symbol><symbol viewBox="0 0 20 20" id="dashicons-arrow-left-alt2"><title>arrow-left-alt2</title><path d="M14 5l-5 5 5 5-1 2-7-7 7-7z"/></symbol><symbol viewBox="0 0 20 20" id="dashicons-arrow-left"><title>arrow-left</title><path d="M13 14L7 9.97 13 6v8z"/></symbol><symbol viewBox="0 0 20 20" id="dashicons-arrow-right-alt"><title>arrow-right-alt</title><path d="M2 11V9h12l-4-4 1-2 7 7-7 7-1-2 4-4H2z"/></symbol><symbol viewBox="0 0 20 20" id="dashicons-arrow-right-alt2"><title>arrow-right-alt2</title><path d="M6 15l5-5-5-5 1-2 7 7-7 7z"/></symbol><symbol viewBox="0 0 20 20" id="dashicons-arrow-right"><title>arrow-right</title><path d="M8 6l6 4.03L8 14V6z"/></symbol><symbol viewBox="0 0 20 20" id="dashicons-arrow-up-alt"><title>arrow-up-alt</title><path d="M11 18H9V6l-4 4-2-1 7-7 7 7-2 1-4-4v12z"/></symbol><symbol viewBox="0 0 20 20" id="dashicons-arrow-up-alt2"><title>arrow-up-alt2</title><path d="M15 14l-5-5-5 5-2-1 7-7 7 7z"/></symbol><symbol viewBox="0 0 20 20" id="dashicons-arrow-up"><title>arrow-up</title><path d="M7 13l4.03-6L15 13H7z"/></symbol><symbol viewBox="0 0 20 20" id="dashicons-art"><title>art</title><path d="M8.55 3.06q.2.07.21.22t-.11.355-.3.445-.32.515-.195.54.09.545.525.51q.23.17.61.05t.75-.37.825-.635.835-.74.78-.69.65-.475q.39-.22.845-.3t.95 0 .96.47.775 1.06q.33.72.41 1.82t-.145 2.395-.7 2.555-1.35 2.42-2.005 1.87q-1.17.74-2.465 1.06t-2.525.2-2.335-.585T3.33 14.97t-1.39-2.01q-.29-.66-.395-1.41t-.025-1.475.3-1.475.575-1.425.79-1.31.95-1.135T5.2 3.82t1.13-.62 1.135-.275 1.085.135zm1.21 6.45q.3.68 1.26.56.91-.12 1.73-.84.96-.86.93-1.87-.01-.34-.13-.65-.26-.65-1.24-.33-.92.29-1.76 1.12-.94.94-.87 1.71.02.16.08.3z"/></symbol><symbol viewBox="0 0 20 20" id="dashicons-awards"><title>awards</title><path d="M4.46 5.16L5 7.46l-.54 2.29 2.01 1.24L7.7 13l2.3-.54 2.3.54 1.23-2.01 2.01-1.24L15 7.46l.54-2.3-2-1.24-1.24-2.01-2.3.55-2.29-.54-1.25 2zm5.55 6.34q-1.67 0-2.84-1.17T6 7.49q0-1.65 1.175-2.82T10.01 3.5q1.65 0 2.82 1.17T14 7.49q0 1.66-1.17 2.835T10.01 11.5zm-.02-1q-1.24 0-2.115-.875T7 7.5q0-1.24.875-2.12T9.99 4.5t2.125.88T13 7.5t-.88 2.12-2.13.88zm3.84 1.1l-1.28 2.24-2.08-.47L13 19.2l1.4-2.2h2.5zm-7.7.07l1.25 2.25 2.13-.51L7 19.2 5.6 17H3.1z"/></symbol><symbol viewBox="0 0 20 20" id="dashicons-backup"><title>backup</title><path d="M13.65 2.88q1.45.74 2.48 1.98t1.49 2.685.35 3.05-.85 3.055-1.98 2.475-2.68 1.49-3.05.355-3.06-.85q-1.38-.71-2.37-1.85t-1.49-2.55l1.64-1.03q.34 1.2 1.135 2.18t1.945 1.58q1.11.57 2.34.655t2.33-.27 2.045-1.145 1.515-1.9.66-2.34-.27-2.33-1.145-2.05-1.895-1.52-2.34-.655-2.33.27T6.075 5.31 4.56 7.21l1.88.97-4.95 3.08-.39-5.82 1.78.91q.74-1.45 1.985-2.48t2.69-1.49 3.05-.345 3.045.845zm-4.36 7.83Q9 10.42 9 10q0-.04.02-.1t.02-.09h-.01L10 5l.97 4.81L14 13l-4.5-2.12.02-.02q-.13-.07-.23-.15z"/></symbol><symbol viewBox="0 0 20 20" id="dashicons-book-alt"><title>book-alt</title><path d="M5 17h13v2H5q-1.24 0-2.12-.88T2 16V4q0-1.24.88-2.12T5 1h13v14H5q-.41 0-.705.295T4 16t.295.705T5 17zm2-3.5v-11q0-.21-.145-.355T6.5 2t-.355.145T6 2.5v11q0 .21.145.355T6.5 14t.355-.145T7 13.5z"/></symbol><symbol viewBox="0 0 20 20" id="dashicons-book"><title>book</title><path d="M16 3h2v16H5q-1.24 0-2.12-.88T2 16V4q0-1.24.88-2.12T5 1h9v14H5q-.41 0-.705.295T4 16t.295.705T5 17h11V3z"/></symbol><symbol viewBox="0 0 20 20" id="dashicons-buddicons-activity"><title>buddicons-activity</title><path d="M8 1v7h2V6q0-1.15.92-2.075T13 3v.86Q13.91 3 15 3v3h1q.82 0 1.41.59T18 8t-.59 1.41T16 10h-1v6q0 .41-.295.705T14 17t-.705-.295T13 16v-2.18q-.51.18-1 .18v2q0 .41-.295.705T11 17t-.705-.295T10 16v-2H8v2q0 .41-.295.705T7 17t-.705-.295T6 16v-2q-.49 0-1-.18V16q0 .41-.295.705T4 17t-.705-.295T3 16v-4H2v-1q0-1.24.88-2.12T5 8h2V1h1zm5 7q.41 0 .705-.295T14 7t-.295-.705T13 6t-.705.295T12 7t.295.705T13 8z"/></symbol><symbol viewBox="0 0 20 20" id="dashicons-buddicons-bbpress-logo"><title>buddicons-bbpress-logo</title><path d="M10 2q1.62 0 3.105.635T15.66 4.34t1.705 2.555T18 10t-.635 3.105-1.705 2.555-2.555 1.705T10 18t-3.105-.635T4.34 15.66t-1.705-2.555T2 10t.635-3.105T4.34 4.34t2.555-1.705T10 2zm0 15.5q1.53 0 2.915-.595t2.39-1.6 1.6-2.39T17.5 10t-.595-2.915-1.6-2.39-2.39-1.6T10 2.5t-2.915.595-2.39 1.6-1.6 2.39T2.5 10q0 2.23 1.22 4.1.41.61.95 1.17 1.04 1.05 2.42 1.64t2.91.59zm0-14.24q1.37 0 2.62.535t2.15 1.435 1.435 2.15.535 2.62-.535 2.62-1.435 2.15-2.15 1.435-2.62.535q-2.06 0-3.74-1.13.78-.04 1.51-.42t1.26-.99q.2.58.8 1t1.51.42q1.3 0 2.405-.88t1.365-2.12q.29-1.27-.28-2.13t-1.82-.86q-.45 0-.96.21t-.9.52l1.04-4.79q.02-.14-.035-.215t-.185-.035q-.56.15-2.27.32-.18.02-.245.17t.02.29.265.13q.22-.01.345.01t.205.105.1.2-.01.345-.085.5-.145.7q-.01.03-.01.04l-.54 2.43q-.57-.93-1.86-.93-.46 0-.965.21t-.895.52q1-4.61 1.03-4.79.03-.13-.025-.21T6.7 5.32q-.42.11-1.79.26.94-1.09 2.265-1.705T10 3.26zM4.41 6.23h.06q.26-.01.395.03t.205.155.055.325-.08.545-.175.815q-.01.02-.01.03l-1.01 4.63q-.59-1.3-.59-2.76 0-2.07 1.15-3.77zm4.12 6.39q-.23 1.04-.825 1.72t-1.435.68q-.55 0-.89-.41t-.17-1.16l.34-1.67q.15-.64.695-1.07t1.145-.43q.82 0 1.095.65t.045 1.69zm5.27 0q-.22 1.04-.82 1.72t-1.44.68q-.55 0-.89-.41t-.17-1.16l.35-1.67q.15-.64.69-1.07t1.14-.43q.82 0 1.095.65t.045 1.69z"/></symbol><symbol viewBox="0 0 20 20" id="dashicons-buddicons-buddypress-logo"><title>buddicons-buddypress-logo</title><path d="M10 0q1.63 0 3.155.505t2.755 1.43 2.155 2.155 1.43 2.755T20 10t-.505 3.155-1.43 2.755-2.155 2.155-2.755 1.43T10 20t-3.155-.505-2.755-1.43-2.155-2.155-1.43-2.755T0 10t.505-3.155 1.43-2.755T4.09 1.935 6.845.505 10 0zm0 .5q-1.93 0-3.69.75T3.275 3.275 1.25 6.31.5 10t.75 3.69 2.025 3.035T6.31 18.75t3.69.75 3.69-.75 3.035-2.025 2.025-3.035.75-3.69-.75-3.69-2.025-3.035T13.69 1.25 10 .5zm0 1q1.73 0 3.305.67t2.715 1.81 1.81 2.715T18.5 10t-.67 3.305-1.81 2.715-2.715 1.81T10 18.5t-3.305-.67-2.715-1.81-1.81-2.715T1.5 10t.67-3.305T3.98 3.98t2.715-1.81T10 1.5zm1.8 1.71q-.83 0-1.55.45 1.18.28 1.955 1.24t.775 2.21q0 1-.55 1.87.99-.22 1.64-1.015t.65-1.835q0-1.21-.855-2.065T11.8 3.21zm-2.38 1q-1.21 0-2.065.86T6.5 7.14t.855 2.065 2.065.855 2.07-.855.86-2.065q0-1.22-.855-2.075T9.42 4.21zm4.25 5.01l-.51.59q.66.19 1.15.635t.725.94.38.96.165.775l.03.3h1.28q0-.76-.11-1.385t-.295-1.045-.43-.75-.51-.51-.53-.305-.51-.165-.43-.055-.295-.005zm-2.1.8l-2.12 2.09-2.12-2.09q-.68.04-1.23.23t-.905.485-.625.67-.41.78-.22.81-.095.765-.005.635.03.445l.02.16h11.08q.1-1.02-.04-1.84t-.43-1.325-.67-.88-.775-.545-.73-.27-.545-.11z"/></symbol><symbol viewBox="0 0 20 20" id="dashicons-buddicons-community"><title>buddicons-community</title><path d="M9 3q0-.92-1-2-.4.4-.7.98T7 3q0 .37.3.685T8 4q.41 0 .705-.3T9 3zm4 0q0-.92-1-2-.4.4-.7.98T11 3q0 .37.3.685T12 4q.41 0 .705-.3T13 3zM9 9V5.5q0-.41-.295-.705T8 4.5q-.42 0-.71.305T7 5.5V9q0 .41.295.705T8 10q.42 0 .71-.305T9 9zm4 0V5.5q0-.41-.295-.705T12 4.5q-.42 0-.71.305T11 5.5V9q0 .41.295.705T12 10q.42 0 .71-.305T13 9zm4 1q0-1.09-.95-2.01T13.5 6.54V9q0 .62-.44 1.06T12 10.5t-1.06-.44T10.5 9V6.01q-.08 0-.25-.005T10 6t-.25.005-.25.005V9q0 .62-.44 1.06T8 10.5t-1.06-.44T6.5 9V6.54q-1.6.53-2.55 1.45T3 10q0 1.1.785 1.975T6.21 13.37q.32.1 1.085.42t1.425.51 1.28.19 1.28-.19 1.425-.515 1.085-.425q1.63-.51 2.42-1.385T17 10zm-7 5.43q.63 0 1.315-.195t1.44-.505 1.125-.41q.68-.19 1.185-.435t.865-.575.57-.595T17 12v3q0 1.09-.935 2.01t-2.55 1.455T10 19t-3.515-.535-2.55-1.455T3 15v-3q.37.58.7.945t.955.75 1.495.635q.35.1 1.115.41t1.435.5 1.3.19z"/></symbol><symbol viewBox="0 0 20 20" id="dashicons-buddicons-forums"><title>buddicons-forums</title><path d="M13.5 7h-7q-.62 0-1.06-.44T5 5.5t.44-1.06T6.5 4h1.59Q8 3.71 8 3.5q0-.62.44-1.06T9.5 2h1q.62 0 1.06.44T12 3.5q0 .21-.09.5h1.59q.62 0 1.06.44T15 5.5t-.44 1.06T13.5 7zM4 8h12q.41 0 .705.295T17 9t-.295.705T16 10H4q-.41 0-.705-.295T3 9t.295-.705T4 8zm1 3h10q.41 0 .705.295T16 12t-.295.705T15 13H5q-.41 0-.705-.295T4 12t.295-.705T5 11zm2 3h6q.41 0 .705.295T14 15t-.295.705T13 16h-1.09q.09.29.09.5 0 .62-.44 1.06T10.5 18h-1q-.62 0-1.06-.44T8 16.5q0-.21.09-.5H7q-.41 0-.705-.295T6 15t.295-.705T7 14z"/></symbol><symbol viewBox="0 0 20 20" id="dashicons-buddicons-friends"><title>buddicons-friends</title><path d="M8.75 5.77q0-.39-.18-.92t-.435-1.01-.515-.905-.44-.675L7 2q-.07.1-.19.27t-.42.655-.53.93-.42.985-.19.93q0 .98.43 1.355T7 7.5t1.32-.375.43-1.355zm6 0q0-.39-.18-.92t-.435-1.01-.515-.905-.44-.675L13 2q-.07.1-.19.27t-.42.655-.53.93-.42.985-.19.93q0 .98.43 1.355T13 7.5t1.32-.375.43-1.355zM9 17V9q0-.41-.295-.705T8 8H6q-.41 0-.705.295T5 9v8q0 .41.295.705T6 18h2q.41 0 .705-.295T9 17zm6 0V9q0-.41-.295-.705T14 8h-2q-.41 0-.705.295T11 9v8q0 .41.295.705T12 18h2q.41 0 .705-.295T15 17zm-9-6l2-1v2l-2 1v-2zm6 0l2-1v2l-2 1v-2zm-6 3l2-1v2l-2 1v-2zm6 0l2-1v2l-2 1v-2z"/></symbol><symbol viewBox="0 0 20 20" id="dashicons-buddicons-groups"><title>buddicons-groups</title><path d="M15.45 6.25q.89.46 1.275 1.3t.225 1.81-.8 1.87q-.59.83-1.595 1.345t-1.865.435L10.05 18H9l-2.65-4.99q-.85.12-1.895-.4T2.8 11.22q-.64-.9-.8-1.87t.23-1.81 1.28-1.29q.68-.34 1.43-.31-.02.62.07 1.21.2 1.29.995 2.52t1.865 1.85q-.3.86-.88 1.25L9 16.58v-5.66q-1.02-.28-1.915-1.44T6 7q-.2-1.32.16-2.46T7.4 2.7 9.5 2t2.1.7 1.24 1.84T13 7q-.19 1.32-1.085 2.48T10 10.92v5.77l2.07-3.84q-.63-.33-.99-1.3 1.09-.61 1.9-1.855t1.01-2.545q.09-.59.07-1.22.73-.02 1.39.32z"/></symbol><symbol viewBox="0 0 20 20" id="dashicons-buddicons-pm"><title>buddicons-pm</title><path d="M10 2q.84 0 1.975.515t2.15 1.25 1.91 1.47T17.46 6.48L18 7v11H2V7q.2-.2.555-.54t1.38-1.2T5.9 3.74 8 2.54 10 2zm7 14.72l-3.73-2.92L17 11l-.43-.37-2.26 1.3.24-4.31-8.77-.52-.46 4.54-1.99-.95L3 11l3.73 2.8-3.44 2.85.4.43L10 13l6.53 4.15z"/></symbol><symbol viewBox="0 0 20 20" id="dashicons-buddicons-replies"><title>buddicons-replies</title><path d="M17.54 10.29q.88.88.88 2.125t-.88 2.125-2.125.88-2.125-.88l-.34-.52q0 .66-.095 1.24t-.225.995-.365.795-.425.605-.495.47-.48.355-.475.285T10 19q-.11-.08-.495-.32t-.645-.42-.635-.585-.605-.855-.4-1.185-.17-1.615l-.34.52q-.88.88-2.125.88t-2.125-.88-.88-2.125.88-2.125q1.02-.67 2.1-1.3Q3.2 7.15 3.2 4.88q0-.47.08-1 .18 1.31.84 2.455T5.8 8.3q.53-.28 1.265-.57t1.105-.35H8q-.82 0-1.41-.59T6 5.38t.59-1.41T8 3.38v-.5q0-.21.145-.355T8.5 2.38t.355.145T9 2.88v.5h2v-.5q0-.21.145-.355t.355-.145.355.145.145.355v.5q.82 0 1.41.59T14 5.38t-.59 1.41-1.41.59h-.17q.36.06 1.125.365t1.255.555q1.02-.82 1.68-1.965t.84-2.455q.08.53.08 1 0 2.27-1.36 4.11.48.28 1 .605t.81.505zM8.5 6.38q.38 0 .69-.3t.31-.7q0-.41-.295-.705T8.5 4.38t-.705.295-.295.705.295.705.705.295zm3-2q-.41 0-.705.295t-.295.705.295.705.705.295.705-.295.295-.705-.295-.705-.705-.295zm-2.3 5.73q-.19.17-.19.43.02.19.16.325T9.5 11h1q.19 0 .33-.135t.16-.325q0-.21-.19-.43-.15-.11-.3-.11h-1q-.15 0-.3.11zM12 12.5q0-.23-.19-.38-.15-.12-.31-.12h-3q-.16 0-.31.12-.19.17-.19.38t.145.355T8.5 13h3q.21 0 .355-.145T12 12.5zM8.5 15h3q.21 0 .355-.145T12 14.5t-.145-.355T11.5 14h-3q-.21 0-.355.145T8 14.5t.145.355T8.5 15zm1 2h1q.21 0 .355-.145T11 16.5t-.145-.355T10.5 16h-1q-.21 0-.355.145T9 16.5t.145.355T9.5 17z"/></symbol><symbol viewBox="0 0 20 20" id="dashicons-buddicons-topics"><title>buddicons-topics</title><path d="M10.44 1.66q-.44-.44-1.06-.44t-1.06.44L2.66 7.32q-.44.44-.44 1.06t.44 1.06q.46.44 1.075.435T4.78 9.44l5.66-5.66q.44-.44.44-1.06t-.44-1.06zm2.83 2.83q-.44-.44-1.065-.44t-1.055.44l-5.66 5.66q-.44.43-.44 1.055t.44 1.065q.46.44 1.075.43t1.045-.43l5.66-5.66q.43-.43.43-1.055t-.43-1.065zm1.06 6.72l4.18 4.18q.44.44.44 1.06t-.44 1.06-1.065.44-1.055-.44l-4.18-4.18-1.77 1.77q-.44.44-1.06.44t-1.06-.44-.44-1.065.44-1.065l5.66-5.65q.44-.44 1.06-.44t1.06.44.44 1.06-.44 1.06zM5 15q0-.45-.17-1.025T4.415 12.9t-.49-.94-.415-.7L3.34 11q-.15.31-.37.805t-.595 1.575T2 15q0 .9.385 1.45t.955.55h.32q.62 0 .98-.445T5 15z"/></symbol><symbol viewBox="0 0 20 20" id="dashicons-buddicons-tracking"><title>buddicons-tracking</title><path d="M10.98 6.78L15.5 15q-.48.96-1.42 1.66t-1.99 1.02T10 18t-2.09-.32-1.99-1.02T4.5 15L9 6.82q-.57-.93-1.68-1.46t-2.61-.57l2.46-2.92q1.99 1.41 2.97 3.31.51-.8 1.095-1.31t1.605-.81l1.83 2.86q-1.92-.46-3.69.86zM8.17 10.4l-.93 1.69q.71.16 1.54.16 1.99 0 3.55-.95l-1.01-1.82q-1.36.83-3.15.92zm.86 5.38q1.47 0 2.72-.5t2.02-1.36l-.98-1.76q-.77.86-2.02 1.365t-2.72.505q-.87 0-1.76-.21l-.63 1.15q1.52.81 3.37.81z"/></symbol><symbol viewBox="0 0 20 20" id="dashicons-businessman"><title>businessman</title><path d="M7.3 6l-.03-.19q-.06-.55-.03-1.08.03-.56.25-1.04.22-.5.52-.86.33-.39.83-.6Q9.36 2 9.97 2q1.03 0 1.71.59.69.6.91 1.44.22.85.09 1.78l-.03.19q-.01.1-.11.48-.07.33-.2.69-.13.34-.34.72-.18.35-.47.69-.25.26-.67.48-.39.19-.86.19-.46 0-.87-.19-.42-.21-.67-.5-.25-.28-.49-.66-.22-.36-.34-.73-.14-.39-.21-.67-.09-.33-.12-.5zm9.2 6.24q.5.85.5 2.14v2.49q0 .04-.29.13-.07.02-.37.105t-.6.165q-1.1.24-1.65.34-.85.15-1.95.27-1.12.12-2.13.12t-2.14-.12q-.9-.08-1.98-.27-.44-.08-1.56-.34-.43-.1-1.06-.29L3 16.87v-2.49q0-1.34.46-2.15.65-1.15 1.5-1.68.47-.29 1.36-.42T8 10l1.67 1.67L9 13v3l1.02 1.08L11 16v-3l-.68-1.33L11.97 10q2.09 0 2.9.52.96.61 1.63 1.72z"/></symbol><symbol viewBox="0 0 20 20" id="dashicons-calendar-alt"><title>calendar-alt</title><path d="M15 4h3v15H2V4h3V3q0-.6.44-1.06.44-.44 1.06-.44t1.06.44Q8 2.4 8 3v1h4V3q0-.6.44-1.06.44-.44 1.06-.44t1.06.44Q15 2.4 15 3v1zM6 3v2.5q0 .21.15.36.14.14.35.14t.35-.14Q7 5.71 7 5.5V3q0-.22-.15-.35-.13-.15-.35-.15t-.35.15Q6 2.78 6 3zm7 0v2.5q0 .2.14.36.16.14.36.14t.36-.14Q14 5.7 14 5.5V3q0-.21-.14-.35-.15-.15-.36-.15t-.36.15Q13 2.79 13 3zm4 15V8H3v10h14zM7 9v2H5V9h2zm2 0h2v2H9V9zm4 2V9h2v2h-2zm-6 1v2H5v-2h2zm2 0h2v2H9v-2zm4 2v-2h2v2h-2zm-6 1v2H5v-2h2zm4 2H9v-2h2v2zm4 0h-2v-2h2v2z"/></symbol><symbol viewBox="0 0 20 20" id="dashicons-calendar"><title>calendar</title><path d="M15 4h3v14H2V4h3V3q0-.62.44-1.06T6.5 1.5t1.06.44T8 3v1h4V3q0-.62.44-1.06t1.06-.44 1.06.44T15 3v1zM6 3v2.5q0 .21.145.355T6.5 6t.355-.145T7 5.5V3q0-.21-.145-.355T6.5 2.5t-.355.145T6 3zm7 0v2.5q0 .21.145.355T13.5 6t.355-.145T14 5.5V3q0-.21-.145-.355T13.5 2.5t-.355.145T13 3zm4 14V8H3v9h14zM7 16V9H5v7h2zm4 0V9H9v7h2zm4 0V9h-2v7h2z"/></symbol><symbol viewBox="0 0 20 20" id="dashicons-camera"><title>camera</title><path d="M6 5V3H3v2h3zm12 10V4H9L7 6H2v9h16zm-7-8q1.24 0 2.12.88T14 10t-.88 2.12T11 13t-2.12-.88T8 10t.88-2.12T11 7z"/></symbol><symbol viewBox="0 0 20 20" id="dashicons-carrot"><title>carrot</title><path d="M2 18.43q.28.27.94.185t1.54-.38 1.945-.815 2.15-1.13 2.15-1.315 1.945-1.365 1.54-1.295.93-1.095q.36-.6.235-1.375t-.58-1.55T13.62 6.78q.32-.21.665-.21t.645.175.625.415.61.505.595.46.58.265.57-.08q.46-.24.685-.855t.015-1.065q-.12-.26-.365-.455t-.475-.305-.64-.2-.63-.12-.7-.075-.61-.055q.36-.09.8-.275t.92-.47.805-.685.335-.82q.03-.69-.665-1.315T16 1.07q-.25.03-.47.14t-.4.325-.315.41-.275.53-.22.525-.205.565-.175.505q-.16-2.23-.98-2.95-.55-.43-1.06-.38t-.88.465-.38.965q-.01.31.19.625t.49.56.605.545.53.57.27.635-.165.735q-.78-.6-1.575-.965t-1.555-.44T8.1 4.7q-.7.45-1.63 1.69 1.68 1.78 3.09 2.72.15.11.185.29t-.075.33q-.1.16-.285.195T9.05 9.85q-1.38-.94-3.1-2.71-.71 1.05-1.34 2.23 1.57 1.58 2.79 2.41.15.11.18.29t-.07.33q-.1.16-.285.195t-.345-.075q-1.17-.8-2.71-2.32-1.43 2.82-2.12 5.24T2 18.43z"/></symbol><symbol viewBox="0 0 20 20" id="dashicons-cart"><title>cart</title><path d="M6 13h9q.41 0 .705.295T16 14t-.295.705T15 15H5q-.41 0-.705-.295T4 14V4H2q-.41 0-.705-.295T1 3t.295-.705T2 2h3q.41 0 .705.295T6 3v2h13l-4 7H6v1zm-.5 3q.62 0 1.06.44T7 17.5t-.44 1.06T5.5 19t-1.06-.44T4 17.5t.44-1.06T5.5 16zm9 0q.62 0 1.06.44T16 17.5t-.44 1.06-1.06.44-1.06-.44T13 17.5t.44-1.06T14.5 16z"/></symbol><symbol viewBox="0 0 20 20" id="dashicons-category"><title>category</title><path d="M5 7h13v10H2V4h7l2 2H4v9h1V7z"/></symbol><symbol viewBox="0 0 20 20" id="dashicons-chart-area"><title>chart-area</title><path d="M18 18l.01-12.28q.45-.27.72-.725T19 4q0-.82-.59-1.41T17 2t-1.41.59T15 4q0 .59.315 1.075t.825.725l-4.13 6.58q-.52-.38-1.16-.38-.62 0-1.12.34t-.73.9l-2.14-1.53Q7 11.37 7 11q0-.83-.585-1.415T5 9t-1.415.585T3 11q0 .54.265.99t.715.72L1 18h17zM17 3q.41 0 .705.295T18 4t-.295.705T17 5t-.705-.295T16 4t.295-.705T17 3zM5 10q.41 0 .705.295T6 11t-.295.705T5 12t-.705-.295T4 11t.295-.705T5 10zm5.85 3q.41 0 .705.295t.295.705-.295.705-.705.295-.705-.295T9.85 14t.295-.705.705-.295z"/></symbol><symbol viewBox="0 0 20 20" id="dashicons-chart-bar"><title>chart-bar</title><path d="M18 18V2h-4v16h4zm-6 0V7H8v11h4zm-6 0v-8H2v8h4z"/></symbol><symbol viewBox="0 0 20 20" id="dashicons-chart-line"><title>chart-line</title><path d="M18 3.5q0 .46-.255.835t-.665.545v13.11H1.99l4.22-6.73Q6 10.89 6 10.5q0-.62.44-1.06T7.5 9t1.06.44T9 10.5q0 .17-.05.37l1.44.63q.45-.5 1.11-.5.22 0 .51.09l3.58-6.41Q15 4.24 15 3.5q0-.62.44-1.06T16.5 2q.25 0 .53.1l.05-.09v.11q.41.17.665.545T18 3.5zm-1.92 13.49V5.85l-3.29 5.89q.21.37.21.76 0 .62-.44 1.06T11.5 14t-1.06-.44T10 12.5l.01-.07-1.63-.72q-.4.29-.88.29-.24 0-.51-.1l-3.2 5.09h12.29z"/></symbol><symbol viewBox="0 0 20 20" id="dashicons-chart-pie"><title>chart-pie</title><path d="M10 10V3q1.43 0 2.725.555t2.23 1.49 1.49 2.23T17 10h-7zM9 4v7h7q0 1.43-.555 2.725t-1.49 2.23-2.23 1.49T9 18t-2.725-.555-2.23-1.49-1.49-2.23T2 11t.555-2.725 1.49-2.23 2.23-1.49T9 4z"/></symbol><symbol viewBox="0 0 20 20" id="dashicons-clipboard"><title>clipboard</title><path d="M11.9.39l1.4 1.4q.5.06 1.235-.015t1.27-.15 1.13.04.975.495.495.975.04 1.13-.15 1.27-.015 1.235l1.4 1.4q.29.29.29.705t-.29.705l-9.19 9.2q-.3.29-.715.29t-.705-.29L1.29 11Q1 10.71 1 10.295t.29-.715l9.2-9.19q.29-.29.705-.29t.705.29zm.58 2.25l-.58.58 4.95 4.95.58-.58q-.24-.75-.15-1.82.03-.47.09-.92.11-.73.09-1.235t-.26-.745-.745-.26-1.235.09q-.45.06-.92.09-1.07.09-1.82-.15zm4.02.93q.29.29.29.71t-.29.71-.71.29-.71-.29-.29-.71.29-.71.71-.29.71.29zm-6.72.36l-.71.7L15.44 11l.7-.71zM8.36 5.34l-.7.71 6.36 6.36.71-.7zM6.95 6.76l-.71.7 6.37 6.37.7-.71zM5.54 8.17l-.71.71 6.36 6.36.71-.71zM4.12 9.58l-.71.71 6.37 6.37.71-.71z"/></symbol><symbol viewBox="0 0 20 20" id="dashicons-clock"><title>clock</title><path d="M10 2q1.63 0 3.11.635t2.55 1.705 1.705 2.55T18 10t-.635 3.11-1.705 2.55-2.55 1.705T10 18t-3.11-.635-2.55-1.705-1.705-2.55T2 10t.635-3.11T4.34 4.34t2.55-1.705T10 2zm0 14q1.63 0 3.01-.805t2.185-2.185T16 10t-.805-3.01-2.185-2.185T10 4t-3.01.805T4.805 6.99 4 10t.805 3.01 2.185 2.185T10 16zm-.71-5.29q.14.1.23.15l-.02.02L14 13l-3.03-3.19L10 5l-.97 4.81h.01q0 .01-.02.09T9 10q0 .42.29.71z"/></symbol><symbol viewBox="0 0 20 20" id="dashicons-cloud"><title>cloud</title><path d="M14.85 10.03q1.33.14 2.24 1.13T18 13.5q0 1.45-1.025 2.475T14.5 17h-10q-1.45 0-2.475-1.025T1 13.5q0-1.33.88-2.31t2.18-1.15Q4 9.78 4 9.5q0-1.04.73-1.77T6.5 7q.49 0 .95.19.5-.99 1.455-1.59T11 5q1.66 0 2.83 1.17T15 9q0 .48-.15 1.03z"/></symbol><symbol viewBox="0 0 20 20" id="dashicons-code"><title>code</title><path d="M9 6l-4 4 4 4-1 2-6-6 6-6zm2 8l4-4-4-4 1-2 6 6-6 6z"/></symbol><symbol viewBox="0 0 20 20" id="dashicons-dashboard"><title>dashboard</title><path d="M3.76 16h12.48Q18 13.81 18 11q0-1.63-.635-3.11T15.66 5.34t-2.55-1.705T10 3t-3.11.635T4.34 5.34 2.635 7.89 2 11q0 2.81 1.76 5zM10 4q.41 0 .705.295T11 5t-.295.705T10 6t-.705-.295T9 5t.295-.705T10 4zM6 6q.41 0 .705.295T7 7t-.295.705T6 8t-.705-.295T5 7t.295-.705T6 6zm8 0q.41 0 .705.295T15 7t-.295.705T14 8t-.705-.295T13 7t.295-.705T14 6zm-5.37 5.55L12 7v6q0 .82-.59 1.41T10 15t-1.41-.59T8 13q0-.85.63-1.45zM4 10q.41 0 .705.295T5 11t-.295.705T4 12t-.705-.295T3 11t.295-.705T4 10zm12 0q.41 0 .705.295T17 11t-.295.705T16 12t-.705-.295T15 11t.295-.705T16 10zm-5 3q0-.41-.295-.705T10 12t-.705.295T9 13t.295.705T10 14t.705-.295T11 13z"/></symbol><symbol viewBox="0 0 20 20" id="dashicons-desktop"><title>desktop</title><path d="M3 2h14q.41 0 .705.295T18 3v10q0 .41-.295.705T17 14h-5v2h2q.41 0 .705.295T15 17v1H5v-1q0-.41.295-.705T6 16h2v-2H3q-.41 0-.705-.295T2 13V3q0-.41.295-.705T3 2zm13 9V4H4v7h12zM5 5h9L5 9V5z"/></symbol><symbol viewBox="0 0 20 20" id="dashicons-dismiss"><title>dismiss</title><path d="M10 2q1.63 0 3.11.635t2.55 1.705 1.705 2.55T18 10t-.635 3.11-1.705 2.55-2.55 1.705T10 18t-3.11-.635-2.55-1.705-1.705-2.55T2 10t.635-3.11T4.34 4.34t2.55-1.705T10 2zm5 11l-3-3 3-3-2-2-3 3-3-3-2 2 3 3-3 3 2 2 3-3 3 3z"/></symbol><symbol viewBox="0 0 20 20" id="dashicons-download"><title>download</title><path d="M14.01 4v6h2V2H4v8h2.01V4h8zm-2 2v6h3l-5 6-5-6h3V6h4z"/></symbol><symbol viewBox="0 0 20 20" id="dashicons-edit"><title>edit</title><path d="M13.89 3.39l2.71 2.72q.34.35.335.84t-.305.8l-8.01 8.02-5.56 1.16 1.16-5.58q7.6-7.63 7.99-8.03.29-.3.815-.285t.865.355zm-2.73 2.79l-5.59 5.61 1.11 1.11 5.54-5.65zm-2.97 8.23l5.58-5.6-1.07-1.08-5.59 5.6z"/></symbol><symbol viewBox="0 0 20 20" id="dashicons-editor-aligncenter"><title>editor-aligncenter</title><path d="M14 5V3H6v2h8zm3 4V7H3v2h14zm-3 4v-2H6v2h8zm3 4v-2H3v2h14z"/></symbol><symbol viewBox="0 0 20 20" id="dashicons-editor-alignleft"><title>editor-alignleft</title><path d="M12 5V3H3v2h9zm5 4V7H3v2h14zm-5 4v-2H3v2h9zm5 4v-2H3v2h14z"/></symbol><symbol viewBox="0 0 20 20" id="dashicons-editor-alignright"><title>editor-alignright</title><path d="M17 5V3H8v2h9zm0 4V7H3v2h14zm0 4v-2H8v2h9zm0 4v-2H3v2h14z"/></symbol><symbol viewBox="0 0 20 20" id="dashicons-editor-bold"><title>editor-bold</title><path d="M6 4v13h4.54q2.07 0 3.26-1 1.2-.99 1.2-2.77 0-1.26-.51-2.01-.52-.76-1.67-1.03v-.09q.85-.15 1.36-.9t.51-1.91q0-1.72-1.17-2.5Q12.37 4 9.78 4H6zm2.57 5.15V6.26h1.36q1.09 0 1.61.32.51.33.51 1.07 0 .8-.47 1.15t-1.51.35h-1.5zm0 2.19h1.6q2.16 0 2.16 1.61 0 .91-.51 1.34-.5.43-1.57.43H8.57v-3.38z"/></symbol><symbol viewBox="0 0 20 20" id="dashicons-editor-break"><title>editor-break</title><path d="M16 4h2v9H7v3l-5-4 5-4v3h9V4z"/></symbol><symbol viewBox="0 0 20 20" id="dashicons-editor-code"><title>editor-code</title><path d="M9 6l-4 4 4 4-1 2-6-6 6-6zm2 8l4-4-4-4 1-2 6 6-6 6z"/></symbol><symbol viewBox="0 0 20 20" id="dashicons-editor-contract"><title>editor-contract</title><path d="M15.75 6.75L18 3v14l-2.25-3.75L17 12h-4v4l1.25-1.25L18 17H2l3.75-2.25L7 16v-4H3l1.25 1.25L2 17V3l2.25 3.75L3 8h4V4L5.75 5.25 2 3h16l-3.75 2.25L13 4v4h4z"/></symbol><symbol viewBox="0 0 20 20" id="dashicons-editor-customchar"><title>editor-customchar</title><path d="M10 5.4q1.9 0 2.91 1.08 1 1.08 1 3.13 0 1.92-.69 3.27-.33.62-.875 1.115T11 15v2h6v-2h-3.69q1.46-1.01 2.12-2.34.74-1.53.74-3.35 0-2.67-1.65-4.22Q12.86 3.54 10 3.54q-2.87 0-4.52 1.57-1.65 1.56-1.65 4.2 0 1.81.73 3.33.62 1.3 2.1 2.36H3v2h6v-2q-.84-.55-1.39-1.05t-.85-1.12q-.67-1.33-.67-3.22 0-2.06 1-3.13Q8.08 5.4 10 5.4z"/></symbol><symbol viewBox="0 0 20 20" id="dashicons-editor-expand"><title>editor-expand</title><path d="M6 3L4.75 4.25 7 8 3.25 5.75 2 7V3h4zm8 0h4v4l-1.25-1.25L13 8l2.25-3.75zm-7 9V8h6v4H7zm-5 1l1.25 1.25L7 12l-2.25 3.75L6 17H2v-4zm12 4l1.25-1.25L13 12l3.75 2.25L18 13v4h-4z"/></symbol><symbol viewBox="0 0 20 20" id="dashicons-editor-help"><title>editor-help</title><path d="M17 10q0-1.9-.94-3.515t-2.55-2.55T10 3q-1.43 0-2.725.555t-2.23 1.49-1.49 2.23T3 10t.555 2.725 1.49 2.23 2.23 1.49T10 17q1.9 0 3.51-.935t2.55-2.55T17 10zm-6.3 1.48H9.14v-.43q0-.56.24-.98.22-.39.88-.89.61-.43.81-.71.2-.26.2-.62 0-.37-.28-.58-.28-.19-.79-.19-.88 0-2 .57l-.64-1.28q1.31-.74 2.77-.74 1.2 0 1.92.58.71.58.71 1.55 0 .66-.29 1.11-.27.45-1.11 1.06-.55.4-.71.63-.15.22-.15.57v.35zm-1.47 2.74q-.27-.26-.27-.73 0-.5.26-.75t.77-.25q.47 0 .75.26.27.26.27.74 0 .47-.27.72-.27.27-.75.27t-.76-.26z"/></symbol><symbol viewBox="0 0 20 20" id="dashicons-editor-indent"><title>editor-indent</title><path d="M3 5V3h9v2H3zm10-1V3h4v1h-4zm0 3h2V5l4 3.5-4 3.5v-2h-2V7zM3 8V6h9v2H3zm2 3V9h7v2H5zm-2 3v-2h9v2H3zm10 0v-1h4v1h-4zm-4 3v-2h3v2H9z"/></symbol><symbol viewBox="0 0 20 20" id="dashicons-editor-insertmore"><title>editor-insertmore</title><path d="M17 7V3H3v4h14zM6 11V9H3v2h3zm6 0V9H8v2h4zm5 0V9h-3v2h3zm0 6v-4H3v4h14z"/></symbol><symbol viewBox="0 0 20 20" id="dashicons-editor-italic"><title>editor-italic</title><path d="M14.78 6h-2.13l-2.8 9h2.12l-.62 2H4.6l.62-2h2.14l2.8-9H8.03l.62-2h6.75z"/></symbol><symbol viewBox="0 0 20 20" id="dashicons-editor-justify"><title>editor-justify</title><path d="M2 3h16v2H2V3zm0 4h16v2H2V7zm0 4h16v2H2v-2zm0 4h16v2H2v-2z"/></symbol><symbol viewBox="0 0 20 20" id="dashicons-editor-kitchensink"><title>editor-kitchensink</title><path d="M19 2v6H1V2h18zm-1 5V3H2v4h16zM5 4v2H3V4h2zm3 0v2H6V4h2zm3 0v2H9V4h2zm3 0v2h-2V4h2zm3 0v2h-2V4h2zm2 5v9H1V9h18zm-1 8v-7H2v7h16zM5 11v2H3v-2h2zm3 0v2H6v-2h2zm3 0v2H9v-2h2zm6 0v2h-5v-2h5zm-6 3v2H3v-2h8zm3 0v2h-2v-2h2zm3 0v2h-2v-2h2z"/></symbol><symbol viewBox="0 0 20 20" id="dashicons-editor-ol"><title>editor-ol</title><path d="M6 7V3h-.69L4.02 4.03l.4.51.46-.37q.12-.1.3-.28l-.02.42V7H6zm2-2h9v1H8V5zm-1.23 6.95v-.7H5.05v-.04l.51-.48q.56-.52.7-.71.21-.26.3-.49.1-.23.1-.51 0-.33-.16-.56-.14-.23-.44-.37t-.65-.14q-.29 0-.51.06-.17.03-.42.15-.21.12-.48.35l.45.54q.24-.19.45-.3.21-.1.45-.1.23 0 .35.11.13.12.13.36 0 .15-.06.3-.07.16-.19.33-.11.13-.58.62l-.99 1v.58h2.76zM8 10h9v1H8v-1zm-1.29 3.95q0-.46-.37-.71-.37-.26-1-.26-.78 0-1.33.4l.4.6q.27-.18.46-.23.2-.07.41-.07.58 0 .58.46 0 .31-.22.43t-.7.12h-.31v.66h.31q.51 0 .75.12.23.12.23.41 0 .32-.2.47-.21.15-.63.15-.27 0-.57-.08-.25-.07-.52-.2v.74q.5.22 1.18.22.8 0 1.22-.33.43-.33.43-.92 0-.4-.26-.64-.25-.24-.74-.3v-.02q.4-.09.65-.37.23-.28.23-.65zM8 15h9v1H8v-1z"/></symbol><symbol viewBox="0 0 20 20" id="dashicons-editor-outdent"><title>editor-outdent</title><path d="M7 4V3H3v1h4zm10 1V3H8v2h9zM7 7H5V5L1 8.5 5 12v-2h2V7zm10 1V6H8v2h9zm-2 3V9H8v2h7zm2 3v-2H8v2h9zM7 14v-1H3v1h4zm4 3v-2H8v2h3z"/></symbol><symbol viewBox="0 0 20 20" id="dashicons-editor-paragraph"><title>editor-paragraph</title><path d="M15 2H7.54q-1.24 0-2.28.6-1.05.62-1.65 1.65Q3 5.28 3 6.52t.61 2.27q.6 1.04 1.65 1.64 1.03.61 2.28.61h.43V17q0 .4.29.71.31.29.71.29t.71-.29q.3-.3.3-.71V5q0-.42.29-.71.31-.29.71-.29t.71.29q.29.31.29.71v12q0 .41.3.71.31.29.71.29t.71-.29q.29-.31.29-.71V4H15q.4 0 .7-.3.3-.28.3-.7 0-.41-.3-.71Q15.39 2 15 2z"/></symbol><symbol viewBox="0 0 20 20" id="dashicons-editor-paste-text"><title>editor-paste-text</title><path d="M12.38 2L15 5v1H5V5l2.64-3h4.74zM10 5q.41 0 .705-.29T11 4q0-.41-.295-.705T10 3t-.705.295T9 4q0 .42.295.71T10 5zm5.45-1H17q.41 0 .705.295T18 5v12q0 .42-.295.71T17 18H3q-.41 0-.705-.29T2 17V5q0-.41.295-.705T3 4h1.55L4 4.63V7h12V4.63zM14 11V9H6v2h3v5h2v-5h3z"/></symbol><symbol viewBox="0 0 20 20" id="dashicons-editor-paste-word"><title>editor-paste-word</title><path d="M12.38 2L15 5v1H5V5l2.64-3h4.74zM10 5q.41 0 .705-.295T11 4t-.295-.705T10 3t-.705.295T9 4t.295.705T10 5zm8 12V5q0-.41-.295-.705T17 4h-1.54l.54.63V7H4V4.62L4.55 4H3q-.41 0-.705.295T2 5v12q0 .41.295.705T3 18h14q.41 0 .705-.295T18 17zm-3-8l-2 7h-2l-1-5-1 5H6.92L5 9h2l1 5 1-5h2l1 5 1-5h2z"/></symbol><symbol viewBox="0 0 20 20" id="dashicons-editor-quote"><title>editor-quote</title><path d="M9.49 13.22q0-1.13-.61-1.9-.43-.53-1.17-.695T6.35 10.6q-.21-1.22.665-2.59T9.27 5.95L7.88 4q-1.06.51-1.995 1.29T4.21 7.085t-1.1 2.31-.19 2.655q.22 1.8 1.195 2.875T6.54 16q1.28 0 2.12-.75.83-.74.83-2.03zm8.05 0q0-1.13-.61-1.9-.43-.54-1.17-.7t-1.36-.02q-.21-1.22.665-2.59t2.255-2.06L15.93 4q-1.06.51-1.995 1.29t-1.67 1.795-1.095 2.31-.19 2.655q.22 1.8 1.19 2.875T14.59 16q1.28 0 2.12-.75.83-.74.83-2.03z"/></symbol><symbol viewBox="0 0 20 20" id="dashicons-editor-removeformatting"><title>editor-removeformatting</title><path d="M14.29 4.59l1.1 1.11q.61.6.61 1.47v2.12q0 .87-.61 1.47l-6.63 6.63q-.6.61-1.47.61t-1.47-.61l-1.11-1.1-1.1-1.11Q3 14.58 3 13.71v-2.12q0-.87.61-1.48l6.63-6.62q.6-.61 1.47-.61.86 0 1.47.61zm-6.21 9.7l6.42-6.42q.29-.29.29-.71t-.29-.72L12.36 4.3q-.29-.29-.72-.29-.42 0-.71.29l-6.42 6.42q-.29.3-.29.72t.29.71l2.14 2.14q.29.29.715.29t.715-.29z"/></symbol><symbol viewBox="0 0 20 20" id="dashicons-editor-rtl"><title>editor-rtl</title><path d="M5.52 2h7.43q.41 0 .705.295T13.95 3t-.295.705T12.95 4h-1v13q0 .41-.295.705T10.95 18t-.705-.295T9.95 17V5q0-.41-.295-.705T8.95 4t-.705.295T7.95 5v12q0 .41-.295.705T6.95 18t-.705-.295T5.95 17v-5.96h-.43q-1.23 0-2.27-.605T1.605 8.79 1 6.52t.605-2.27T3.25 2.605 5.52 2zM14 14l5-4-5-4v8z"/></symbol><symbol viewBox="0 0 20 20" id="dashicons-editor-spellcheck"><title>editor-spellcheck</title><path d="M15.84 2.76q.36 0 .71.11.26.08.64.25l.35-.81q-.78-.39-1.69-.39-.86 0-1.52.37-.65.37-.99 1.08Q13 4.05 13 5q0 1.49.7 2.28t2.02.79q.88 0 1.6-.26v-.84q-.32.1-.74.19-.38.08-.74.08-.89 0-1.34-.57-.47-.54-.47-1.66 0-1.05.48-1.65.49-.6 1.33-.6zM6.5 8h1.04L5.3 2H4.24L2 8h1.03l.58-1.66H5.9zM8 2v6h2.17q1.01 0 1.57-.46.56-.44.56-1.26 0-.6-.3-.95-.28-.35-.93-.47v-.04q.5-.09.78-.44.28-.37.28-.88 0-.78-.56-1.14Q11.03 2 9.78 2H8zm.98 2.48V2.82h.85q.68 0 .97.19.31.18.31.61 0 .46-.29.66-.28.2-.89.2h-.95zM5.64 5.5H3.9l.54-1.56q.23-.65.32-1.1l.15.52q.08.26.17.51zm3.34-.23h.99q.64 0 .98.23.32.23.32.69 0 .51-.32.75-.31.24-.93.24H8.98V5.27zM4 13l5 5 9-8-1-1-8 6-4-3z"/></symbol><symbol viewBox="0 0 20 20" id="dashicons-editor-strikethrough"><title>editor-strikethrough</title><path d="M15.82 12.25q.4 0 .74-.07.33-.07.73-.2v.84q-.7.26-1.58.26-1.31 0-2.01-.79-.59-.67-.68-1.79h-.94q.18.32.18.79 0 .8-.55 1.26-.57.45-1.56.45H8v-2.5H6.59l.93 2.5H6.49l-.59-1.67H3.62L3.04 13H2l.93-2.5H2v-1h1.31l.93-2.49H5.3l.92 2.49H8V7h1.77q1.15 0 1.77.41.55.36.55 1.13 0 .52-.27.87l-.08.09h1.29q.08-.62.31-1.1.36-.71.98-1.06.64-.37 1.51-.37.93 0 1.69.38l-.35.81q-.26-.13-.64-.25-.35-.11-.71-.11-.83 0-1.31.59-.35.44-.44 1.11H17v1h-2.95q.09.77.44 1.19.45.56 1.33.56zM4.44 8.96l-.18.54h1.03l-.21-.61q-.02-.05-.075-.22t-.095-.29q-.12-.41-.14-.51-.14.59-.33 1.09zm4.53-1.09V9.5h1.19q.39-.03.64-.18.28-.19.28-.66 0-.42-.3-.61-.3-.18-.97-.18h-.84zm-3.33 2.64v-.01H3.91v.01h1.73zm5.28.01l-.03-.02H8.97v1.68h1.04q.6 0 .92-.23.31-.24.31-.74 0-.46-.32-.69z"/></symbol><symbol viewBox="0 0 20 20" id="dashicons-editor-textcolor"><title>editor-textcolor</title><path d="M13.23 15h1.9L11 4H9L5 15h1.88l1.07-3h4.18zm-1.53-4.54H8.51L10 5.6z"/></symbol><symbol viewBox="0 0 20 20" id="dashicons-editor-ul"><title>editor-ul</title><path d="M5.5 7q-.62 0-1.06-.44T4 5.5t.44-1.06T5.5 4t1.06.44T7 5.5t-.44 1.06T5.5 7zM8 5h9v1H8V5zm-2.5 7q-.62 0-1.06-.44T4 10.5t.44-1.06T5.5 9t1.06.44T7 10.5t-.44 1.06T5.5 12zM8 10h9v1H8v-1zm-2.5 7q-.62 0-1.06-.44T4 15.5t.44-1.06T5.5 14t1.06.44T7 15.5t-.44 1.06T5.5 17zM8 15h9v1H8v-1z"/></symbol><symbol viewBox="0 0 20 20" id="dashicons-editor-underline"><title>editor-underline</title><path d="M14 5h-2v5.71q0 1.43-.7 2.205t-1.75.775q-1.06 0-1.805-.78T7 10.73V5H5v5.87q0 .61.125 1.205t.45 1.21.82 1.08 1.29.755 1.795.29 1.805-.285 1.3-.74.825-1.065.46-1.205.13-1.205V5zm0 13v-2H5v2h9z"/></symbol><symbol viewBox="0 0 20 20" id="dashicons-editor-unlink"><title>editor-unlink</title><path d="M17.74 2.26Q19 3.53 19 5.31t-1.26 3.05l-1.53 1.52q-.45.46-1.08.77L13 10l1.69-1.64.76-.77.76-.76q.63-.63.63-1.52t-.63-1.52q-.63-.64-1.52-.64t-1.52.64l-.77.76-.76.76L10 7l-.65-2.14q.31-.63.77-1.07l1.52-1.53Q12.91 1 14.695 1t3.045 1.26zM2 4l8 6-6-8zm4-2l4 8-2-8H6zM2 6l8 4-8-2V6zm7.36 7.69L10 13l.74 2.35-1.38 1.39Q8.09 18 6.31 18t-3.05-1.26Q2 15.48 2 13.69t1.26-3.05l1.39-1.38L7 10l-.69.64-1.52 1.53q-.64.63-.64 1.52t.64 1.52q.63.64 1.52.64t1.52-.64zM18 16l-8-6 6 8zm-4 2l-4-8 2 8h2zm4-4l-8-4 8 2v2z"/></symbol><symbol viewBox="0 0 20 20" id="dashicons-editor-video"><title>editor-video</title><path d="M16 2h-3v1H7V2H4v15h3v-1h6v1h3V2zM6 3v1H5V3h1zm9 0v1h-1V3h1zm-2 1v5H7V4h6zM6 5v1H5V5h1zm9 0v1h-1V5h1zM6 7v1H5V7h1zm9 0v1h-1V7h1zM6 9v1H5V9h1zm9 0v1h-1V9h1zm-2 1v5H7v-5h6zm-7 1v1H5v-1h1zm9 0v1h-1v-1h1zm-9 2v1H5v-1h1zm9 0v1h-1v-1h1zm-9 2v1H5v-1h1zm9 0v1h-1v-1h1z"/></symbol><symbol viewBox="0 0 20 20" id="dashicons-email-alt"><title>email-alt</title><path d="M19 14.5v-9q0-.62-.44-1.06T17.5 4H3.49q-.62 0-1.06.44T1.99 5.5v9q0 .62.44 1.06t1.06.44H17.5q.62 0 1.06-.44T19 14.5zm-1.31-9.11q.15.15.175.325t-.04.295-.165.22L13.6 9.95l3.9 4.06q.26.3.06.51-.09.11-.28.12t-.28-.07l-4.37-3.73-2.14 1.95-2.13-1.95-4.37 3.73q-.09.08-.28.07t-.28-.12q-.2-.21.06-.51l3.9-4.06-4.06-3.72q-.1-.1-.165-.22t-.04-.295.175-.325q.4-.4.95.07l6.24 5.04 6.25-5.04q.55-.47.95-.07z"/></symbol><symbol viewBox="0 0 20 20" id="dashicons-email"><title>email</title><path d="M3.87 4h13.25Q19 4 19 5.79v8.42Q19 16 17.12 16H3.87q-1.88 0-1.88-1.79V5.79Q1.99 4 3.87 4zm6.62 8.6l6.74-5.53q.21-.17.27-.455T17.36 6q-.21-.3-.565-.335t-.605.165l-5.7 3.86L4.8 5.83q-.25-.2-.605-.165T3.63 6q-.2.33-.14.615t.27.455z"/></symbol><symbol viewBox="0 0 20 20" id="dashicons-exerpt-view"><title>exerpt-view</title><path d="M19 18V2q0-.41-.295-.705T18 1H2q-.41 0-.705.295T1 2v16q0 .41.295.705T2 19h16q.41 0 .705-.295T19 18zM4 3q.41 0 .705.295T5 4t-.295.705T4 5t-.705-.295T3 4t.295-.705T4 3zm13 0v6H6V3h11zM4 11q.41 0 .705.295T5 12t-.295.705T4 13t-.705-.295T3 12t.295-.705T4 11zm13 0v6H6v-6h11z"/></symbol><symbol viewBox="0 0 20 20" id="dashicons-external"><title>external</title><path d="M9 3h8v8l-2-1V6.92l-5.6 5.59-1.41-1.41L14.08 5H10zm3 12v-3l2-2v7H3V6h8L9 8H5v7h7z"/></symbol><symbol viewBox="0 0 20 20" id="dashicons-facebook-alt"><title>facebook-alt</title><path d="M8.46 18h2.93v-7.3h2.45l.37-2.84h-2.82V6.04q0-.69.295-1.035T12.8 4.66h1.51V2.11Q13.36 2 12.12 2q-1.67 0-2.665.985T8.46 5.76v2.1H6v2.84h2.46V18z"/></symbol><symbol viewBox="0 0 20 20" id="dashicons-facebook"><title>facebook</title><path d="M2.89 2h14.23q.37 0 .625.255T18 2.88v14.24q0 .36-.255.62t-.625.26h-4.08v-6.2h2.08l.31-2.41h-2.39V7.85q0-.59.25-.885t.95-.295h1.28V4.51q-.66-.09-1.86-.09-1.42 0-2.265.835T10.55 7.61v1.78H8.46v2.41h2.09V18H2.89q-.37 0-.63-.26T2 17.12V2.88q0-.37.26-.625T2.89 2z"/></symbol><symbol viewBox="0 0 20 20" id="dashicons-feedback"><title>feedback</title><path d="M2 2h16q.41 0 .705.295T19 3v14q0 .41-.295.705T18 18H2q-.41 0-.705-.295T1 17V3q0-.41.295-.705T2 2zm15 14V7H3v9h14zM4 8v1h3V8H4zm4 0v3h8V8H8zm-4 4v1h3v-1H4zm4 0v3h8v-3H8z"/></symbol><symbol viewBox="0 0 20 20" id="dashicons-flag"><title>flag</title><path d="M5 18V3H3v15h2zm1-6V4q.83-.28 1.89-.285t2.145.14 2.205.29 2.39.135T17 4v8q-.83.35-2.01.39t-2.295-.13-2.39-.325-2.295-.195T6 12z"/></symbol><symbol viewBox="0 0 20 20" id="dashicons-format-aside"><title>format-aside</title><path d="M1 1h18v12l-6 6H1V1zm3 3v1h12V4H4zm0 4v1h12V8H4zm6 5v-1H4v1h6zm2 4l5-5h-5v5z"/></symbol><symbol viewBox="0 0 20 20" id="dashicons-format-audio"><title>format-audio</title><path d="M6.99 3.08l11.02-2q.4-.06.695.255T19 2.08V14.5q0 1.45-1.025 2.475T15.5 18t-2.475-1.025T12 14.5t1.025-2.475T15.5 11q.73 0 1.5.35V5.08l-9 2V16q-.18 1.28-1.18 2.14T4.5 19q-1.45 0-2.475-1.025T1 15.5t1.025-2.475T4.5 12q.73 0 1.5.35V4.08q0-.4.28-.665t.71-.335z"/></symbol><symbol viewBox="0 0 20 20" id="dashicons-format-chat"><title>format-chat</title><path d="M11 6h-.82q-.81 0-1.495.71T8 8.16V10l-3 3v-3H3q-.82 0-1.41-.59T1 8V3q0-.82.59-1.41T3 1h6q.82 0 1.41.59T11 3v3zm0 1h6q.82 0 1.41.59T19 9v5q0 .82-.59 1.41T17 16h-2v3l-3-3h-1q-.82 0-1.41-.59T9 14V9q0-.82.59-1.41T11 7z"/></symbol><symbol viewBox="0 0 20 20" id="dashicons-format-gallery"><title>format-gallery</title><path d="M16 4h1.96q.43 0 .735.305T19 5.04v12.92q0 .43-.305.735T17.96 19H5.04q-.43 0-.735-.305T4 17.96V16H2.04q-.43 0-.735-.305T1 14.96V2.04q0-.43.305-.735T2.04 1h12.92q.43 0 .735.305T16 2.04V4zM3 14h11V3H3v11zm5-8.5q0-.62-.44-1.06T6.5 4t-1.06.44T5 5.5t.44 1.06T6.5 7t1.06-.44T8 5.5zm2 4.5q.02-.1.06-.28t.185-.7.305-.995.43-1.05.555-.99.67-.7T13 5v8H4V7q.56 0 .97.31t.6.75.3.88.12.75L6 10q.01-.04.025-.115t.08-.28.155-.395.255-.42.36-.395.49-.28T8 8q.47 0 .845.205t.58.5.345.59.19.505zm7 7V6h-1v8.96q0 .43-.305.735T14.96 16H6v1h11z"/></symbol><symbol viewBox="0 0 20 20" id="dashicons-format-image"><title>format-image</title><path d="M2.25 1h15.5q.52 0 .885.365T19 2.25v15.5q0 .52-.365.885T17.75 19H2.25q-.52 0-.885-.365T1 17.75V2.25q0-.52.365-.885T2.25 1zM17 17V3H3v14h14zM10 6q0-.82-.59-1.41T8 4t-1.41.59T6 6t.59 1.41T8 8t1.41-.59T10 6zm3 5q0-.08.005-.21t.03-.54.075-.81.155-.94.25-1.005.375-.935.52-.805.7-.545T16 5v10q0 .41-.295.705T15 16H5q-.41 0-.705-.295T4 15V8q.41 0 .795.22t.675.575.55.78.435.85.3.78.185.575L7 12q.04-.12.12-.325t.36-.72.6-.91.84-.72T10 9t1.075.205.85.5.59.59.365.505z"/></symbol><symbol viewBox="0 0 20 20" id="dashicons-format-quote"><title>format-quote</title><path d="M8.54 12.74q0-1.3-.72-2.22-.5-.63-1.365-.82T4.86 9.67q-.25-1.43.78-3.035T8.28 4.22L6.65 1.94q-.98.47-1.885 1.14T3.07 4.65 1.735 6.575.94 8.845.85 11.37q.26 2.11 1.395 3.37T5.08 16q1.51 0 2.48-.88.98-.88.98-2.38zm9.43 0q0-1.3-.72-2.22-.5-.63-1.365-.82t-1.595-.03q-.25-1.43.78-3.035t2.64-2.415l-1.63-2.28q-.98.47-1.885 1.14T12.5 4.65t-1.335 1.925-.795 2.27-.09 2.525q.26 2.11 1.395 3.37T14.51 16q1.51 0 2.48-.88.98-.88.98-2.38z"/></symbol><symbol viewBox="0 0 20 20" id="dashicons-format-status"><title>format-status</title><path d="M10 1q2.05 0 3.62.335t2.575.91 1.645 1.42.9 1.775T19 7.5t-.26 2.06-.9 1.775-1.645 1.42-2.575.91T10 14t-3.62-.335-2.575-.91-1.645-1.42-.9-1.775T1 7.5t.26-2.06.9-1.775 1.645-1.42 2.575-.91T10 1zM5.5 9q.62 0 1.06-.44T7 7.5t-.44-1.06T5.5 6t-1.06.44T4 7.5t.44 1.06T5.5 9zM10 9q.62 0 1.06-.44t.44-1.06-.44-1.06T10 6t-1.06.44T8.5 7.5t.44 1.06T10 9zm4.5 0q.62 0 1.06-.44T16 7.5t-.44-1.06T14.5 6t-1.06.44T13 7.5t.44 1.06T14.5 9zM6 14.5q.62 0 1.06.44T7.5 16t-.44 1.06T6 17.5t-1.06-.44T4.5 16t.44-1.06T6 14.5zm-3 2q.41 0 .705.295T4 17.5t-.295.705T3 18.5t-.705-.295T2 17.5t.295-.705T3 16.5z"/></symbol><symbol viewBox="0 0 20 20" id="dashicons-format-video"><title>format-video</title><path d="M2 1h16q.41 0 .705.295T19 2v16l-18-.02V2q0-.41.295-.705T2 1zm4 1L4 5h1l2-3H6zm4 0H9L7 5h1zm3 0h-1l-2 3h1zm3 0h-1l-2 3h1zm1 14V6H3v10h14zM8 7l6 4-6 4V7z"/></symbol><symbol viewBox="0 0 20 20" id="dashicons-forms"><title>forms</title><path d="M2 2h7v7H2V2zm9 0v7h7V2h-7zM5.5 4.5L7 3H4zM12 8V3h5v5h-5zM4.5 5.5L3 4v3zM8 4L6.5 5.5 8 7V4zM5.5 6.5L4 8h3zM9 18v-7H2v7h7zm9 0h-7v-7h7v7zM8 12v5H3v-5h5zm6.5 1.5L16 12h-3zM12 16l1.5-1.5L12 13v3zm3.5-1.5L17 16v-3zm-1 1L13 17h3z"/></symbol><symbol viewBox="0 0 20 20" id="dashicons-googleplus"><title>googleplus</title><path d="M9.25 11.64q.88.62 1.23 1.28t.35 1.65q0 .62-.3 1.195t-.845 1.04-1.4.74-1.895.275q-1.26 0-2.31-.315t-1.685-.93-.635-1.405q0-1.28 1.3-2.265t3.14-.985q.14 0 .4-.005t.38-.005q-.61-.61-.61-1.26 0-.43.23-.86-.08.01-.22-.005t-.2-.015q-1.51 0-2.475-.97T2.74 6.43q0-.87.555-1.665t1.47-1.28T6.67 3h4.52l-1.01 1H8.74q.83.87 1.03 1.16.43.63.43 1.44 0 1.35-1.28 2.34-.53.42-.695.67t-.165.62q0 .28.395.705t.795.705zM6.83 9.37q.88.03 1.39-.76t.36-1.94q-.15-1.14-.87-1.95t-1.6-.84q-.88-.02-1.39.75t-.36 1.91q.15 1.15.875 1.98t1.595.85zM17 10v1h-2v2h-1v-2h-2v-1h2V8h1v2h2zM6.38 17.1q1.72 0 2.5-.635t.78-1.705q0-.22-.05-.47-.04-.16-.105-.295t-.18-.275-.205-.235-.28-.24-.295-.215-.365-.25-.38-.26q-.56-.18-1.12-.18-1.31-.02-2.3.685t-.99 1.665q0 1 .855 1.705t2.135.705z"/></symbol><symbol viewBox="0 0 20 20" id="dashicons-grid-view"><title>grid-view</title><path d="M2 1h16q.41 0 .705.295T19 2v16q0 .41-.295.705T18 19H2q-.41 0-.705-.295T1 18V2q0-.41.295-.705T2 1zm7.01 7.99v-6H3v6h6.01zm8 0v-6h-6v6h6zm-8 8.01v-6H3v6h6.01zm8 0v-6h-6v6h6z"/></symbol><symbol viewBox="0 0 20 20" id="dashicons-groups"><title>groups</title><path d="M8.03 4.46q-.07.4-.045.855t.205.92.42.84.61.61.78.235q.5 0 .94-.36t.68-.89.355-1.13-.015-1.08q-.16-.72-.725-1.175T10 2.83q-.68 0-1.24.455T8.03 4.46zm-4.13.9q-.13.55.04 1.23t.615 1.19 1.015.51 1.015-.51.615-1.19.04-1.23q-.14-.61-.62-1t-1.05-.39-1.05.39-.62 1zm8.86 0q-.13.55.04 1.23t.615 1.19 1.005.51q.57 0 1.015-.51t.615-1.19.04-1.23q-.14-.61-.62-1t-1.05-.39-1.045.39-.615 1zm-.59 11.43l1.25-4.3q.37-1.26.06-2.15t-1.22-1.38T10 8.47q-2.07 0-3.04 1.09t-.4 2.93l1.26 4.3q.17.53.795.87T10 18q.75 0 1.375-.34t.795-.87zm-6.1-7.63Q5 10.63 5.65 12.75l1.12 3.79q-.53.31-1.2.31-.65 0-1.175-.285t-.675-.745l-1.07-3.65q-.48-1.56.34-2.48t2.58-.92q.41 0 .79.06-.11.11-.29.33zm8.35-.39q1.76 0 2.585.92t.335 2.48l-1.07 3.65q-.15.46-.675.745t-1.175.285q-.67 0-1.2-.31l1.11-3.77q.67-2.15-.42-3.61-.13-.18-.28-.33.38-.06.79-.06z"/></symbol><symbol viewBox="0 0 20 20" id="dashicons-hammer"><title>hammer</title><path d="M17.7 6.32l1.41 1.42-3.47 3.41-1.42-1.42.84-.82q-.54-1.29-1.51-2.31l-4.61 6.59-5.26 4.7q-.29.29-.705.29t-.715-.29l-1.2-1.21q-.29-.29-.29-.705t.29-.705l10.97-9.92Q9.72 3.9 6.36 3.87q4.12-1.25 6.58-.3.25.1.5.235t.445.25.45.33.395.325.4.39.355.375.37.43.33.4.345.44.32.405z"/></symbol><symbol viewBox="0 0 20 20" id="dashicons-heart"><title>heart</title><path d="M10 17.12q2.4-1.01 4.205-2.655t2.835-3.555q.97-1.83 1.065-3.49t-.745-2.76q-1.44-1.81-3.73-1.74-.99.03-1.94.425T10 4.38q-.74-.64-1.69-1.035T6.37 2.92q-2.29-.07-3.73 1.74-.84 1.1-.745 2.76t1.085 3.49q1.01 1.91 2.815 3.555T10 17.12z"/></symbol><symbol viewBox="0 0 20 20" id="dashicons-id-alt"><title>id-alt</title><path d="M18 18H2V2h16v16zM8.05 7.53q.19-.11.33-.24.14-.16.24-.34.13-.26.17-.37.05-.13.1-.34L8.95 6q0-.02.005-.05t.005-.04q.07-.45-.04-.9-.12-.43-.46-.72Q8.11 4 7.6 4q-.29 0-.56.11-.26.12-.41.3-.17.2-.27.44t-.12.51q-.01.18.01.55l.02.09q.02.11.06.25l.1.33q.06.18.17.37.13.2.25.33.15.17.34.25.19.09.43.09t.43-.09zM16 5V4h-5v1h5zm0 2V6h-5v1h5zM7.62 8.83l-1.38-.88q-.61 0-1.14.32-.53.33-.81.85Q4 9.64 4 10.19v1.25l.2.05q.26.08.55.14.41.1.8.17.34.07 1 .14.56.06 1.07.06.5 0 1.07-.06.48-.05.98-.14.54-.1.82-.17.16-.03.34-.08t.2-.05q.13-.04.21-.06v-1.25q0-.55-.31-1.07-.32-.53-.84-.86-.53-.33-1.11-.33zM16 9V8h-3v1h3zm0 2v-1h-3v1h3zm0 3v-1H4v1h12zm0 2v-1H4v1h12z"/></symbol><symbol viewBox="0 0 20 20" id="dashicons-id"><title>id</title><path d="M18 16H2V4h16v12zM7.05 8.53q.19-.11.33-.24.14-.16.24-.34.13-.26.17-.37.05-.13.1-.34L7.95 7q0-.02.005-.05t.005-.04q.07-.45-.04-.9-.12-.43-.46-.72Q7.11 5 6.6 5q-.29 0-.56.11-.26.12-.41.3-.17.2-.27.44t-.12.51q-.01.18.01.55l.02.09q.02.11.06.25l.1.33q.06.18.17.37.13.2.25.33.15.17.34.25.19.09.43.09t.43-.09zM17 9V5h-5v4h5zm-10.38.83l-1.38-.88q-.61 0-1.14.32-.53.33-.81.85-.29.52-.29 1.07v1.25l.2.05q.26.08.55.14.41.1.8.17.34.07 1 .14.55.06 1.07.06.5 0 1.07-.06.48-.05.98-.14.54-.1.82-.17.16-.03.34-.08t.2-.05q.13-.04.21-.06v-1.25q0-.55-.31-1.07-.32-.53-.84-.86-.53-.33-1.11-.33zM17 11v-1h-5v1h5zm0 2v-1h-5v1h5zm0 2v-1H3v1h14z"/></symbol><symbol viewBox="0 0 20 20" id="dashicons-image-crop"><title>image-crop</title><path d="M19 12v3h-4v4h-3v-4H4V7H0V4h4V0h3v4h7l3-3 1 1-3 3v7h4zm-8-5H7v4zm-3 5h4V8z"/></symbol><symbol viewBox="0 0 20 20" id="dashicons-image-flip-horizontal"><title>image-flip-horizontal</title><path d="M19 3v14h-8v3H9v-3H1V3h8V0h2v3h8zm-8.5 14V3h-1v14h1zM7 6.5L3 10l4 3.5v-7zM17 10l-4-3.5v7z"/></symbol><symbol viewBox="0 0 20 20" id="dashicons-image-flip-vertical"><title>image-flip-vertical</title><path d="M20 9v2h-3v8H3v-8H0V9h3V1h14v8h3zM6.5 7h7L10 3zM17 9.5H3v1h14v-1zM13.5 13h-7l3.5 4z"/></symbol><symbol viewBox="0 0 20 20" id="dashicons-image-rotate-left"><title>image-rotate-left</title><path d="M7 5H5.05q0-1.37.715-2.135T8 2.1V0Q5.68 0 4.32 1.395T2.96 5H1.18L3.8 8.39zm13-4v14h-5v5H1V10h9V1h10zm-2 2h-6v7h3v3h3V3zm-5 9H3v6h10v-6z"/></symbol><symbol viewBox="0 0 20 20" id="dashicons-image-rotate-right"><title>image-rotate-right</title><path d="M15.95 5H14l3.2 3.39L19.82 5h-1.78q0-2.21-1.36-3.605T13 0v2.1q1.52 0 2.235.765T15.95 5zM1 1h10v9h9v10H6v-5H1V1zm2 2v10h3v-3h3V3H3zm5 9v6h10v-6H8z"/></symbol><symbol viewBox="0 0 20 20" id="dashicons-images-alt"><title>images-alt</title><path d="M4 15v-3H2V2h12v3h2v3h2v10H6v-3H4zm7-12q-.82 0-1.41.59T9 5h4q0-.83-.585-1.415T11 3zm-7 8V6H3v5h1zm7-3h4q0-.83-.585-1.415T13 6q-.82 0-1.41.59T11 8zm-5 6V9H5v5h1zm9-1q.83 0 1.415-.585T17 11q0-.82-.59-1.41T15 9t-1.41.59T13 11q0 .83.585 1.415T15 13zm2 4v-2q-1.01 0-1.855-.165t-1.445-.43-1.15-.585l-1.1-.64-1.15-.585-1.445-.43L7 12v5h10z"/></symbol><symbol viewBox="0 0 20 20" id="dashicons-images-alt2"><title>images-alt2</title><path d="M5 3h14v11h-2v2h-2v2H1V7h2V5h2V3zm13 10V4H6v9h12zm-3-4q-.82 0-1.41-.59T13 7t.59-1.41T15 5t1.41.59T17 7t-.59 1.41T15 9zm1 6v-1H5V6H4v9h12zM7 6l10 6H7V6zm7 11v-1H3V8H2v9h12z"/></symbol><symbol viewBox="0 0 20 20" id="dashicons-index-card"><title>index-card</title><path d="M1 3.17V18h18V4H8v-.83q0-.48-.35-.83Q7.31 2 6.82 2H2.18q-.49 0-.83.34-.35.34-.35.83zM10 6v2H3V6h7zm7 0v10h-5V6h5zm-7 4v2H3v-2h7zm0 4v2H3v-2h7z"/></symbol><symbol viewBox="0 0 20 20" id="dashicons-info"><title>info</title><path d="M10 2q1.63 0 3.11.635t2.55 1.705 1.705 2.55T18 10t-.635 3.11-1.705 2.55-2.55 1.705T10 18t-3.11-.635-2.55-1.705-1.705-2.55T2 10t.635-3.11T4.34 4.34t2.55-1.705T10 2zm1 4q0-.41-.295-.705T10 5t-.705.295T9 6t.295.705T10 7t.705-.295T11 6zm0 9V9H9v6h2z"/></symbol><symbol viewBox="0 0 20 20" id="dashicons-leftright"><title>leftright</title><path d="M3 10.03L9 6v8zM11 6l6 4.03L11 14V6z"/></symbol><symbol viewBox="0 0 20 20" id="dashicons-lightbulb"><title>lightbulb</title><path d="M10 1q1.53 0 2.825.755t2.05 2.045.755 2.82q0 .52-.21 1.18t-.505 1.235-.595 1.075-.51.79l-.21.3q-.25.33-.425.86T13 13v1q0 .41-.295.705T12 15H8q-.41 0-.705-.295T7 14v-1q0-.41-.175-.94T6.4 11.2q-.08-.11-.215-.305t-.485-.77-.615-1.105T4.6 7.815 4.38 6.62q0-1.53.75-2.82t2.045-2.045T10 1zM7 16.87V16h6v.87q0 .53-.16.83t-.59.3H12q0 .46-.275.73t-.745.27h-2q-.46 0-.72-.265T8 18h-.25q-.43 0-.59-.3T7 16.87z"/></symbol><symbol viewBox="0 0 20 20" id="dashicons-list-view"><title>list-view</title><path d="M2 19h16q.41 0 .705-.295T19 18V2q0-.41-.295-.705T18 1H2q-.41 0-.705.295T1 2v16q0 .41.295.705T2 19zM4 3q.41 0 .705.295T5 4t-.295.705T4 5t-.705-.295T3 4t.295-.705T4 3zm13 0v2H6V3h11zM4 7q.41 0 .705.295T5 8t-.295.705T4 9t-.705-.295T3 8t.295-.705T4 7zm13 0v2H6V7h11zM4 11q.41 0 .705.295T5 12t-.295.705T4 13t-.705-.295T3 12t.295-.705T4 11zm13 0v2H6v-2h11zM4 15q.41 0 .705.295T5 16t-.295.705T4 17t-.705-.295T3 16t.295-.705T4 15zm13 0v2H6v-2h11z"/></symbol><symbol viewBox="0 0 20 20" id="dashicons-location-alt"><title>location-alt</title><path d="M13 13.14l1.17-5.94q.6-.33.965-.915T15.5 5q0-1.04-.73-1.77T13 2.5t-1.77.73T10.5 5q0 .7.365 1.285t.965.915zm0-9.64q.62 0 1.06.44T14.5 5t-.44 1.06T13 6.5t-1.06-.44T11.5 5t.44-1.06T13 3.5zm1.72 4.8L18 6.97v9L13.12 18 7 15.97l-5 2v-9l5-2 4.27 1.41 1.73 7.3z"/></symbol><symbol viewBox="0 0 20 20" id="dashicons-location"><title>location</title><path d="M10 2q-1.63 0-3.01.805T4.805 4.99 4 8q0 1.42.7 2.665t1.83 2.225q.04.03.235.195t.295.255.3.275.345.33.33.355.345.42q1.33 1.74 1.62 2.71.29-.97 1.62-2.71.16-.21.345-.42t.33-.355.345-.33.3-.275.295-.255.235-.195q1.13-.98 1.83-2.225T16 8q0-1.63-.805-3.01T13.01 2.805 10 2zm0 2.56q1.42 0 2.43 1.01T13.44 8t-1.01 2.43T10 11.44t-2.43-1.01T6.56 8t1.01-2.43T10 4.56z"/></symbol><symbol viewBox="0 0 20 20" id="dashicons-lock"><title>lock</title><path d="M15 6v2q.82 0 1.41.59T17 10v7q0 .82-.59 1.41T15 19H5q-.82 0-1.41-.59T3 17v-7q0-.82.59-1.41T5 8V6q0-1.36.67-2.51t1.82-1.82T10 1t2.51.67 1.82 1.82T15 6zM8 6v2h4V6q0-.82-.59-1.41T10 4t-1.41.59T8 6zm2.8 10.25v-2.17q.54-.24.87-.735T12 12.25q0-.83-.59-1.415T10 10.25t-1.41.585T8 12.25q0 .6.33 1.095t.87.735v2.17h1.6z"/></symbol><symbol viewBox="0 0 20 20" id="dashicons-marker"><title>marker</title><path d="M10 2q1.63 0 3.11.635t2.55 1.705 1.705 2.55T18 10t-.635 3.11-1.705 2.55-2.55 1.705T10 18t-3.11-.635-2.55-1.705-1.705-2.55T2 10t.635-3.11T4.34 4.34t2.55-1.705T10 2zm0 13q1.36 0 2.51-.67t1.82-1.82T15 10t-.67-2.51-1.82-1.82T10 5t-2.51.67-1.82 1.82T5 10t.67 2.51 1.82 1.82T10 15z"/></symbol><symbol viewBox="0 0 20 20" id="dashicons-media-archive"><title>media-archive</title><path d="M12 2l4 4v12H4V2h8zm0 4h3l-3-3v3zM8 3.5v2l1.8-1zM11 5L9.2 6 11 7V5zM8 6.5v2l1.8-1zM11 8L9.2 9l1.8 1V8zM8 9.5v2l1.8-1zm3 1.5l-1.8 1 1.8 1v-2zm-1.5 6q.64 0 1.115-.485T11 15.37q-.02-.17-.145-.57t-.235-.72l-.11-.32-1.99-1.1q-.45 1.95-.52 2.71-.05.59.42 1.11T9.5 17zm0-2.39q.32 0 .54.225t.22.535q0 .32-.22.545t-.54.225-.54-.225-.22-.545q0-.31.22-.535t.54-.225z"/></symbol><symbol viewBox="0 0 20 20" id="dashicons-media-audio"><title>media-audio</title><path d="M12 2l4 4v12H4V2h8zm0 4h3l-3-3v3zm1 7.26V8.09q0-.17-.12-.29-.1-.12-.27-.1-3.97.71-4.25.78Q8 8.55 8 9v3.37q-.16-.07-.6-.07-.57 0-.96.39-.4.42-.4.96 0 .55.4.95.39.4.96.4.65 0 .96-.26.64-.57.64-1.12V10.3l3-.6V12q-.87-.26-1.44.31-.39.39-.39.95t.39.96q.4.39 1.08.39.57 0 .96-.39.4-.42.4-.96z"/></symbol><symbol viewBox="0 0 20 20" id="dashicons-media-code"><title>media-code</title><path d="M12 2l4 4v12H4V2h8zM9 13l-2-2 2-2-1-1-3 3 3 3zm3 1l3-3-3-3-1 1 2 2-2 2z"/></symbol><symbol viewBox="0 0 20 20" id="dashicons-media-default"><title>media-default</title><path d="M12 2l4 4v12H4V2h8zm0 4h3l-3-3v3z"/></symbol><symbol viewBox="0 0 20 20" id="dashicons-media-document"><title>media-document</title><path d="M12 2l4 4v12H4V2h8zM5 3v1h6V3H5zm7 3h3l-3-3v3zM5 5v1h6V5H5zm10 3V7H5v1h10zM5 9v1h4V9H5zm10 3V9h-5v3h5zM5 11v1h4v-1H5zm10 3v-1H5v1h10zm-3 2v-1H5v1h7z"/></symbol><symbol viewBox="0 0 20 20" id="dashicons-media-interactive"><title>media-interactive</title><path d="M12 2l4 4v12H4V2h8zm0 4h3l-3-3v3zm2 8V8H6v6h3l-1 2h1l1-2 1 2h1l-1-2h3zm-6-3q-.41 0-.705-.295T7 10t.295-.705T8 9t.705.295T9 10t-.295.705T8 11zm5-2v2h-3V9h3zm0 3v1H7v-1h6z"/></symbol><symbol viewBox="0 0 20 20" id="dashicons-media-spreadsheet"><title>media-spreadsheet</title><path d="M12 2l4 4v12H4V2h8zm-1 4V3H5v3h6zM8 8V7H5v1h3zm3 0V7H9v1h2zm4 0V7h-3v1h3zm-7 2V9H5v1h3zm3 0V9H9v1h2zm4 0V9h-3v1h3zm-7 2v-1H5v1h3zm3 0v-1H9v1h2zm4 0v-1h-3v1h3zm-7 2v-1H5v1h3zm3 0v-1H9v1h2zm4 0v-1h-3v1h3zm-7 2v-1H5v1h3zm3 0v-1H9v1h2z"/></symbol><symbol viewBox="0 0 20 20" id="dashicons-media-text"><title>media-text</title><path d="M12 2l4 4v12H4V2h8zM5 3v1h6V3H5zm7 3h3l-3-3v3zM5 5v1h6V5H5zm10 3V7H5v1h10zm0 2V9H5v1h10zm0 2v-1H5v1h10zm-4 2v-1H5v1h6z"/></symbol><symbol viewBox="0 0 20 20" id="dashicons-media-video"><title>media-video</title><path d="M12 2l4 4v12H4V2h8zm0 4h3l-3-3v3zm-1 8v-3q0-.4-.29-.71Q10.4 10 10 10H7q-.4 0-.71.29Q6 10.6 6 11v3q0 .4.29.71.31.29.71.29h3q.4 0 .71-.29.29-.31.29-.71zm3 1v-5l-2 2v1z"/></symbol><symbol viewBox="0 0 20 20" id="dashicons-megaphone"><title>megaphone</title><path d="M18.15 5.94q.66 2.33-.02 4.48-.31.96-.915 1.605t-1.385.875q-.16.06-.4.06-.06.02-.18.02-.06.02-.22.02h-6.8l2.22 5.5q.03.18-.14.34-.13.16-.34.16H6.95q-.21 0-.34-.16-.17-.17-.14-.34l-1-5.5H4.25l-.02-.02q-.37.04-.78-.125t-.76-.495q-.81-.78-1.06-1.88-.33-1.1-.02-2.2.27-.94 1.06-1.3l.02-.02 9-5.4q.2-.12.24-.16.09-.06.24-.12.19-.1.5-.18.77-.22 1.62.045t1.6.935q.76.68 1.355 1.68t.905 2.18zm-2.58 5.98h-.02q.58-.14 1.04-.7.86-1.04.86-3.04 0-.92-.28-1.98-.5-1.99-1.78-3.24-.58-.56-1.23-.8t-1.23-.08q-1.22.33-1.7 2-.48 1.56.06 3.72.59 2.12 1.8 3.24 1.26 1.19 2.48.88zm-2.54-7.08q.3-.06.62.04.66.28 1.02 1 .42.84.42 1.78 0 .44-.12.8-.3.81-.86.94-.26.08-.575-.035T12.97 9q-.58-.58-.78-1.5-.24-.83.02-1.72.1-.35.33-.605t.49-.335z"/></symbol><symbol viewBox="0 0 20 20" id="dashicons-menu"><title>menu</title><path d="M17 7V5H3v2h14zm0 4V9H3v2h14zm0 4v-2H3v2h14z"/></symbol><symbol viewBox="0 0 20 20" id="dashicons-microphone"><title>microphone</title><path d="M12 9V3q0-.83-.585-1.415T10 1t-1.415.595T8 3v6q0 .82.59 1.41T10 11q.84 0 1.42-.595T12 9zm4 0q0 2.21-1.425 3.88T11 14.91V17h2q.42 0 .71.295T14 18t-.29.705T13 19H7q-.41 0-.705-.295T6 18t.295-.705T7 17h2v-2.09q-2.14-.36-3.57-2.03T4 9q0-.41.295-.705T5 8q.42 0 .71.295T6 9q0 1.66 1.175 2.83T10 13q1.66 0 2.83-1.17T14 9q0-.41.295-.705T15 8q.42 0 .71.295T16 9z"/></symbol><symbol viewBox="0 0 20 20" id="dashicons-migrate"><title>migrate</title><path d="M4 6h6V4H2v12.01h8V14H4V6zm2 2h6V5l6 5-6 5v-3H6V8z"/></symbol><symbol viewBox="0 0 20 20" id="dashicons-minus"><title>minus</title><path d="M4 9h12v2H4V9z"/></symbol><symbol viewBox="0 0 20 20" id="dashicons-nametag"><title>nametag</title><path d="M12 5V2q0-.41-.295-.705T11 1H9q-.41 0-.705.295T8 2v3q0 .41.295.705T9 6h2q.41 0 .705-.295T12 5zm-2-3q.41 0 .705.295T11 3t-.295.705T10 4t-.705-.295T9 3t.295-.705T10 2zm8 13V7q0-.82-.59-1.41T16 5h-3v.33q0 .69-.49 1.18T11.33 7H8.67q-.69 0-1.18-.49T7 5.33V5H4q-.82 0-1.41.59T2 7v8q0 .82.59 1.41T4 17h12q.82 0 1.41-.59T18 15zm-1-6v6H3V9h14zm-8 2q0-.41-.145-.705T8.5 10t-.355.295T8 11t.145.705T8.5 12t.355-.295T9 11zm3 0q0-.41-.145-.705T11.5 10t-.355.295T11 11t.145.705.355.295.355-.295T12 11zm-5.96 1.21Q7.55 13 10 13t3.96-.79q-.16.76-1.29 1.275T10 14t-2.67-.515-1.29-1.275z"/></symbol><symbol viewBox="0 0 20 20" id="dashicons-networking"><title>networking</title><path d="M18 13h1q.41 0 .705.295t.295.715v2.98q0 .42-.295.715T19 18h-4q-.41 0-.705-.295T14 16.99v-2.98q0-.42.295-.715T15 13h1v-2h-5v2h1q.41 0 .705.295t.295.715v2.98q0 .42-.295.715T12 18H8q-.41 0-.705-.295T7 16.99v-2.98q0-.42.295-.715T8 13h1v-2H4v2h1q.41 0 .705.295T6 14.01v2.98q0 .42-.295.715T5 18H1q-.41 0-.705-.295T0 16.99v-2.98q0-.42.295-.715T1 13h1v-2q0-.82.59-1.41T4 9h5V7H8q-.41 0-.705-.295T7 5.99V3.01q0-.42.295-.715T8 2h4q.41 0 .705.295T13 3.01v2.98q0 .42-.295.715T12 7h-1v2h5q.82 0 1.41.59T18 11v2z"/></symbol><symbol viewBox="0 0 20 20" id="dashicons-no-alt"><title>no-alt</title><path d="M14.95 6.46L11.41 10l3.54 3.54-1.41 1.41L10 11.42l-3.53 3.53-1.42-1.42L8.58 10 5.05 6.47l1.42-1.42L10 8.58l3.54-3.53z"/></symbol><symbol viewBox="0 0 20 20" id="dashicons-no"><title>no</title><path d="M15.55 13.7l-2.19 2.06-3.42-3.65-3.64 3.43-2.06-2.18 3.64-3.43-3.42-3.64 2.18-2.06 3.43 3.64 3.64-3.42 2.05 2.18-3.64 3.43z"/></symbol><symbol viewBox="0 0 20 20" id="dashicons-performance"><title>performance</title><path d="M3.76 17.01h12.48Q18 14.8 18 12q0-1.62-.635-3.105T15.66 6.34t-2.55-1.705T10 4t-3.11.635T4.34 6.34 2.635 8.895 2 12q0 2.8 1.76 5.01zM9 6q0-.41.295-.705T10 5t.705.295T11 6q0 .42-.295.71T10 7t-.705-.29T9 6zM4 8q0-.41.295-.705T5 7t.705.295T6 8q0 .42-.295.71T5 9t-.705-.29T4 8zm4.52 3.4q.37-.37 2-1.245t3.07-1.565l1.44-.69q-.3.64-.765 1.605t-1.41 2.75-1.315 2.155q-.63.63-1.51.63t-1.51-.63q-.62-.62-.62-1.505t.62-1.505zM3 13q0-.41.295-.705T4 12t.705.295T5 13q0 .42-.295.71T4 14t-.705-.29T3 13zm6 0q0-.41.295-.705T10 12t.705.295T11 13q0 .42-.295.71T10 14t-.705-.29T9 13zm6 0q0-.41.295-.705T16 12t.705.295T17 13q0 .42-.295.71T16 14t-.705-.29T15 13z"/></symbol><symbol viewBox="0 0 20 20" id="dashicons-playlist-audio"><title>playlist-audio</title><path d="M17 3V1H2v2h15zm0 4V5H2v2h15zm-7 4V9H2v2h8zm7.45-1.96l-6 1.12q-.18.02-.29.13-.16.13-.16.37v4.59q-.31-.14-.93-.14-.81 0-1.38.57-.56.56-.56 1.38 0 .81.56 1.37.57.57 1.38.57.73 0 1.29-.48.56-.49.65-1.19v-4.95L17 11.27v3.48q-.42-.19-.83-.19-.92 0-1.49.57-.57.56-.57 1.37 0 .8.57 1.37t1.38.57q.8 0 1.37-.57T18 16.5V9.6q0-.25-.16-.41-.16-.18-.39-.15zM8 15v-2H2v2h6zm-2 4v-2H2v2h4z"/></symbol><symbol viewBox="0 0 20 20" id="dashicons-playlist-video"><title>playlist-video</title><path d="M17 3V1H2v2h15zm0 4V5H2v2h15zM6 11V9H2v2h4zm2-2h9q.41 0 .705.295T18 10v8q0 .41-.295.705T17 19H8q-.41 0-.705-.295T7 18v-8q0-.41.295-.705T8 9zm3 7l3.33-2L11 12v4zm-5-1v-2H2v2h4zm0 4v-2H2v2h4z"/></symbol><symbol viewBox="0 0 20 20" id="dashicons-plus-alt"><title>plus-alt</title><path d="M15.8 4.2q1.57 1.58 2.13 3.69t0 4.22-2.13 3.69q-1.58 1.57-3.69 2.13t-4.22 0T4.2 15.8q-1.57-1.58-2.13-3.69t0-4.22T4.2 4.2q1.58-1.57 3.69-2.13t4.22 0T15.8 4.2zm-4.3 11.3v-4h4v-3h-4v-4h-3v4h-4v3h4v4h3z"/></symbol><symbol viewBox="0 0 20 20" id="dashicons-plus"><title>plus</title><path d="M17 7v3h-5v5H9v-5H4V7h5V2h3v5h5z"/></symbol><symbol viewBox="0 0 20 20" id="dashicons-portfolio"><title>portfolio</title><path d="M4 5H.78q-.3 0-.515.235T.09 5.84l1.56 9.99Q3.5 8.47 3.86 6.7q.08-.36.365-.53T4.84 6H10q-.7-2.08-.77-2.31Q9.04 3 8.45 3H5.14q-.28 0-.505.17t-.295.47zm4.88 0h-4q.02-.04.05-.11t.125-.24.195-.3.235-.24T5.75 4h2.13q.21 0 .46.25t.4.5zM2.67 16.25q-.49.75-1.26.75h15.73q.4 0 .675-.22t.355-.61l1.68-8.44q.05-.35-.15-.54T19.23 7H16V5.53q0-.15-.195-.34T15.34 5h-3.76q-.23 0-.45.145t-.32.295l-.1.14L10 7H5.59q-.25 0-.45.135T4.9 7.5q-1.59 6.7-1.72 7.33-.17.92-.51 1.42zM15.38 7H11q.02-.04.065-.11t.175-.24.255-.3.305-.24.33-.11h2.29q.2 0 .37.105t.275.25.18.29.105.255z"/></symbol><symbol viewBox="0 0 20 20" id="dashicons-post-status"><title>post-status</title><path d="M14 6q0 1.38-.845 2.45T11 9.86V16q0 .44-.5.94t-1 .78L9 18V9.86q-1.31-.34-2.155-1.41T6 6q0-1.66 1.17-2.83T10 2t2.83 1.17T14 6zM8 5q0 .41.295.705T9 6t.705-.295T10 5t-.295-.705T9 4t-.705.295T8 5z"/></symbol><symbol viewBox="0 0 20 20" id="dashicons-pressthis"><title>pressthis</title><path d="M14.76 1q1.34 0 2.29.955T18 4.25t-.95 2.29-2.29.95q-.33 0-.7-.08L13 8.47V19H2V4h9.54q.09-1.45.99-2.225T14.76 1zm0 5.49q.93 0 1.585-.66T17 4.25q0-.93-.655-1.59T14.76 2t-1.585.66-.655 1.59q0 .54.27 1.03L9.57 8.5q-.35.35-1.015 1.33t-.485 1.16q.03.04.1.04.32 0 1.205-.615T10.56 9.5l3.24-3.24q.48.23.96.23z"/></symbol><symbol viewBox="0 0 20 20" id="dashicons-products"><title>products</title><path d="M17 8h1v11H2V8h1V6q0-1.36.67-2.51t1.82-1.82T8 1q1.05 0 2 .42.95-.42 2-.42 1.36 0 2.51.67t1.82 1.82T17 6v2zM5 6v2h2V6q0-1.64 1.02-3H8q-1.24 0-2.12.88T5 6zm10 2V6q0-1.24-.88-2.12T12 3h-.02Q13 4.36 13 6v2h2zm-5-4.22Q9 4.68 9 6v2h2V6q0-1.32-1-2.22z"/></symbol><symbol viewBox="0 0 20 20" id="dashicons-randomize"><title>randomize</title><path d="M18 6.01L14 9V7h-4l-5 8H2v-2h2l5-8h5V3zM2 5h3l1.15 2.17-1.12 1.8L4 7H2V5zm16 9.01L14 17v-2H9l-1.15-2.17 1.12-1.8L10 13h4v-2z"/></symbol><symbol viewBox="0 0 20 20" id="dashicons-redo"><title>redo</title><path d="M2.77 10.1q.77-1.82 2.15-3.18Q6.28 5.54 8.1 4.77q1.86-.79 3.9-.79V1l6 4.5-6 4.5V7q-1.41 0-2.73.55-1.24.53-2.22 1.5-.98.98-1.5 2.23Q5 12.58 5 14q0 1.41.55 2.73L2.77 17.9q-.79-1.86-.79-3.9t.79-3.9z"/></symbol><symbol viewBox="0 0 20 20" id="dashicons-rss"><title>rss</title><path d="M14.92 18H18q0-2.14-.575-4.18t-1.61-3.765-2.51-3.18-3.23-2.475-3.83-1.585T2 2.25v3.02q2.1 0 4.07.645t3.56 1.82 2.785 2.74 1.85 3.51T14.92 18zm-5.44 0h3.08q0-2.11-.84-4.035t-2.255-3.32-3.37-2.22T2 7.6v3.02q1.5 0 2.86.56t2.43 1.6q1.06 1.04 1.625 2.39T9.48 18zm-5.35-.02q.88 0 1.505-.61t.625-1.48q0-.86-.625-1.475T4.13 13.8t-1.505.615T2 15.89q0 .87.62 1.48t1.51.61z"/></symbol><symbol viewBox="0 0 20 20" id="dashicons-schedule"><title>schedule</title><path d="M2 2h16v4H2V2zm0 10V8h4v4H2zm6-2V8h4v2H8zm6 3V8h4v5h-4zm-6 5v-6h4v6H8zm-6 0v-4h4v4H2zm12 0v-3h4v3h-4z"/></symbol><symbol viewBox="0 0 20 20" id="dashicons-screenoptions"><title>screenoptions</title><path d="M9 9V3H3v6h6zm8 0V3h-6v6h6zm-8 8v-6H3v6h6zm8 0v-6h-6v6h6z"/></symbol><symbol viewBox="0 0 20 20" id="dashicons-search"><title>search</title><path d="M12.14 4.18q1.39 1.39 1.58 3.345t-.86 3.545q.03.03.155.14t.205.17q.34.27.81.59.62.43.66.47.61.45.94.78.49.49.84 1 .36.5.59 1.04.22.55.18 1-.03.48-.36.81t-.81.36q-.49.03-.99-.19-.52-.21-1.04-.59-.51-.35-1-.84-.33-.33-.77-.93-.02-.03-.47-.66-.32-.46-.56-.78-.24-.3-.44-.5-1.54.83-3.34.57t-3.1-1.55q-1.6-1.61-1.6-3.895t1.6-3.885q1.06-1.06 2.475-1.435t2.83 0T12.14 4.18zm-1.41 6.36q1.02-1.03 1.02-2.475T10.73 5.59Q9.7 4.56 8.25 4.56T5.78 5.59Q4.75 6.62 4.75 8.065t1.03 2.475q1.02 1.03 2.47 1.03t2.48-1.03z"/></symbol><symbol viewBox="0 0 20 20" id="dashicons-share-alt"><title>share-alt</title><path d="M16.22 5.8q.35.52.235 1.125t-.635.955-1.125.235-.955-.635q-.21-.31-.55-.67-.36-.34-.67-.55-.37-.25-.77-.41-.42-.19-.84-.26-.9-.2-1.82-.01-.43.09-.84.27-.4.16-.77.41-.33.22-.66.55-.34.34-.56.67-.24.36-.41.76-.01.02-.01.04-.12.3-.23.72H1V6h2.66q.09-.16.12-.2.42-.62.91-1.11.51-.51 1.11-.91.63-.43 1.28-.7.71-.3 1.41-.43 1.51-.32 3.02 0 .7.13 1.41.43.65.27 1.28.7.6.4 1.11.91.49.49.91 1.11zM12.5 10q0-1.04-.73-1.77T10 7.5t-1.77.73T7.5 10t.73 1.77 1.77.73 1.77-.73.73-1.77zm-8.72 4.2q-.35-.52-.235-1.13t.635-.96 1.13-.23.95.64q.21.31.55.67.36.34.67.55.37.25.77.41.36.16.84.26.87.19 1.82 0 .48-.1.84-.26.4-.16.77-.41.33-.22.66-.55.31-.31.56-.67.26-.41.41-.76.01-.02.01-.04.12-.3.23-.72H19v3h-2.66q-.02.02-.055.09t-.065.11q-.42.62-.91 1.11-.51.51-1.11.91-.63.43-1.28.7-.64.27-1.41.43-1.51.32-3.02 0-.77-.16-1.41-.43-.65-.27-1.28-.7-.6-.4-1.11-.91-.49-.49-.91-1.11z"/></symbol><symbol viewBox="0 0 20 20" id="dashicons-share-alt2"><title>share-alt2</title><path d="M18 8l-5 4V9.01q-.86.02-1.525.09t-1.435.26-1.41.505-1.325.855T6 12q.22-2.69 1.99-4.21T13 6.06V3zM4 14h11v-2l2-1.6V16H2V5h9.43q-2.74.48-4.41 2H4v7z"/></symbol><symbol viewBox="0 0 20 20" id="dashicons-share"><title>share</title><path d="M14.5 12q1.24 0 2.12.88T17.5 15t-.88 2.12-2.12.88-2.12-.88T11.5 15q0-.34.09-.69l-4.38-2.3Q6.32 13 5 13q-1.24 0-2.12-.88T2 10t.88-2.12T5 7q1.3 0 2.21.99l4.38-2.3q-.09-.35-.09-.69 0-1.24.88-2.12T14.5 2t2.12.88T17.5 5t-.88 2.12T14.5 8q-1.3 0-2.21-.99l-4.38 2.3Q8 9.66 8 10t-.09.69l4.38 2.3q.89-.99 2.21-.99z"/></symbol><symbol viewBox="0 0 20 20" id="dashicons-shield-alt"><title>shield-alt</title><path d="M10 2q.12.08.345.215t.96.48 1.505.61 1.92.48T17 4q0 2.24-.385 4.23t-1.005 3.365-1.365 2.525-1.49 1.845-1.365 1.175-1.01.67L10 18q-.09-.04-.245-.115T9.12 17.5t-.94-.685-1.09-1.035-1.175-1.415-1.095-1.85-.94-2.31-.635-2.825T3 4q1.12 0 2.255-.205t1.95-.5 1.47-.59.985-.505z"/></symbol><symbol viewBox="0 0 20 20" id="dashicons-shield"><title>shield</title><path d="M10 2q.12.08.345.215t.96.48 1.505.61 1.92.48T17 4q0 2.24-.385 4.23t-1.005 3.365-1.365 2.525-1.49 1.845-1.365 1.175-1.01.67L10 18q-.09-.04-.245-.115T9.12 17.5t-.94-.685-1.09-1.035-1.175-1.415-1.095-1.85-.94-2.31-.635-2.825T3 4q1.12 0 2.255-.205t1.95-.5 1.47-.59.985-.505zm0 8h5q.04-.04.11-.13t.24-.48.3-.9.24-1.44T16 5q-.2-.04-.545-.115t-1.26-.3-1.67-.45-1.5-.54T10 3v7H5q.28 1.12.9 2.255t1.3 1.95 1.32 1.47 1.06.985L10 17v-7z"/></symbol><symbol viewBox="0 0 20 20" id="dashicons-slides"><title>slides</title><path d="M5 14V6h10v8H5zm-3-1V7h2v6H2zm4-6v6h8V7H6zm10 0h2v6h-2V7zm-3 2V8H7v1h6zm0 3v-2H7v2h6z"/></symbol><symbol viewBox="0 0 20 20" id="dashicons-smartphone"><title>smartphone</title><path d="M6 2h8q.41 0 .705.295T15 3v14q0 .41-.295.705T14 18H6q-.41 0-.705-.295T5 17V3q0-.41.295-.705T6 2zm7 12V4H7v10h6zM8 5h4l-4 5V5z"/></symbol><symbol viewBox="0 0 20 20" id="dashicons-smiley"><title>smiley</title><path d="M7 5.2q.83 0 1.415.585T9 7.2q0 .52-.28 1Q8 8 7 8q-.44 0-.87.05t-.64.1l-.21.05Q5 7.72 5 7.2q0-.83.585-1.415T7 5.2zm6 0q.83 0 1.415.585T15 7.2q0 .52-.28 1Q14 8 13 8q-.44 0-.87.05t-.64.1l-.21.05q-.28-.48-.28-1 0-.83.585-1.415T13 5.2zm-3 13.7q2.79 0 5.06-1.62t3.17-4.26l-1.32-.46q-.76 2.22-2.665 3.58T10 17.5t-4.245-1.36-2.665-3.58l-1.32.46q.9 2.64 3.17 4.26T10 18.9z"/></symbol><symbol viewBox="0 0 20 20" id="dashicons-sort"><title>sort</title><path d="M11 7H1l5 7zm-2 7h10l-5-7z"/></symbol><symbol viewBox="0 0 20 20" id="dashicons-sos"><title>sos</title><path d="M18 10q0-1.63-.635-3.11T15.66 4.34t-2.55-1.705T10 2t-3.11.635T4.34 4.34 2.635 6.89 2 10t.635 3.11 1.705 2.55 2.55 1.705T10 18t3.11-.635 2.55-1.705 1.705-2.55T18 10zM7.23 3.57L8.72 7.3q-.97.45-1.42 1.42L3.57 7.23Q4.1 6 5.05 5.05t2.18-1.48zm9.2 3.66L12.7 8.72q-.45-.97-1.42-1.42l1.49-3.73q1.23.53 2.18 1.48t1.48 2.18zM10 12q-.82 0-1.41-.59T8 10t.59-1.41T10 8t1.41.59T12 10t-.59 1.41T10 12zm-6.43.77l3.73-1.49q.45.97 1.42 1.42l-1.49 3.73Q6 15.9 5.05 14.95t-1.48-2.18zm9.2 3.66l-1.49-3.73q.97-.45 1.42-1.42l3.73 1.49q-.53 1.23-1.48 2.18t-2.18 1.48z"/></symbol><symbol viewBox="0 0 20 20" id="dashicons-star-empty"><title>star-empty</title><path d="M10 1L7 7l-6 .75 4.13 4.62L4 19l6-3 6 3-1.12-6.63L19 7.75 13 7zm0 2.24l2.34 4.69 4.65.58-3.18 3.56.87 5.15L10 14.88l-4.68 2.34.87-5.15-3.18-3.56 4.65-.58z"/></symbol><symbol viewBox="0 0 20 20" id="dashicons-star-filled"><title>star-filled</title><path d="M10 1l3 6 6 .75-4.12 4.62L16 19l-6-3-6 3 1.13-6.63L1 7.75 7 7z"/></symbol><symbol viewBox="0 0 20 20" id="dashicons-star-half"><title>star-half</title><path d="M10 1L7 7l-6 .75 4.13 4.62L4 19l6-3 6 3-1.12-6.63L19 7.75 13 7zm0 2.24l2.34 4.69 4.65.58-3.18 3.56.87 5.15L10 14.88V3.24z"/></symbol><symbol viewBox="0 0 20 20" id="dashicons-tablet"><title>tablet</title><path d="M4 2h12q.41 0 .705.295T17 3v14q0 .41-.295.705T16 18H4q-.41 0-.705-.295T3 17V3q0-.41.295-.705T4 2zm11 14V4H5v12h10zM6 5h6l-6 5V5z"/></symbol><symbol viewBox="0 0 20 20" id="dashicons-tag"><title>tag</title><path d="M11 2h7v7L8 19l-7-7zm3 6q.82 0 1.41-.59T16 6t-.59-1.41T14 4t-1.41.59T12 6t.59 1.41T14 8z"/></symbol><symbol viewBox="0 0 20 20" id="dashicons-tagcloud"><title>tagcloud</title><path d="M11 3v4H1V3h10zm8 0v4h-7V3h7zM7 8v3H1V8h6zm12 0v3H8V8h11zM9 12v2H1v-2h8zm10 0v2h-9v-2h9zM6 15v1H1v-1h5zm5 0v1H7v-1h4zm3 0v1h-2v-1h2zm5 0v1h-4v-1h4z"/></symbol><symbol viewBox="0 0 20 20" id="dashicons-testimonial"><title>testimonial</title><path d="M4 3h12q.82 0 1.41.59T18 5v7q0 .82-.59 1.41T16 14h-1l-5 5v-5H4q-.82 0-1.41-.59T2 12V5q0-.82.59-1.41T4 3zm11 2H4v1h11V5zm1 3H4v1h12V8zm-3 3H4v1h9v-1z"/></symbol><symbol viewBox="0 0 20 20" id="dashicons-text"><title>text</title><path d="M18 3v2H2V3h16zm-6 4v2H2V7h10zm6 0v2h-4V7h4zM8 11v2H2v-2h6zm10 0v2h-8v-2h8zm-4 4v2H2v-2h12z"/></symbol><symbol viewBox="0 0 20 20" id="dashicons-tickets"><title>tickets</title><path d="M20 5.38L18.99 8.2v-.01q-.78-.28-1.53.08t-1.04 1.14q-.28.78.075 1.53t1.145 1.03v.01l-1.01 2.82L1.57 9.42l.99-2.79q.78.28 1.53-.075T5.12 5.42t-.075-1.525T3.91 2.87L4.93 0zm-5.45 3.37q.34-1.08.165-2.085t-.87-1.835-1.715-1.2q-1.56-.55-3.055.16T7.02 6.05q-.34 1.08-.165 2.09t.87 1.84 1.715 1.19q1.55.55 3.05-.16t2.06-2.26zm-2.56-4.74q1.33.48 1.97 1.71l-.04-.02q-.24-.09-.465.035t-.315.365q-.1.28.05.91.09.62-.06 1.04-.09.27-.65 1l-.74 1.01.08-4.08.4.11q.14.03.18-.11t-.1-.18q-.57-.15-.92-.28l-.88-.36q-.07-.03-.12 0t-.075.075-.005.105.08.09q.16.08.34.16l.01 1.63L9.2 9.18l.08-4.11.4.11q.14.03.175-.11t-.105-.18q-.56-.15-.91-.28l-.22-.08q.71-.54 1.59-.68t1.78.16zM7.4 6.19q.25-.73.78-1.27l.04 5q-.72-.72-.945-1.715T7.4 6.19zm4.04 4.75l2.1-2.63q.49-.55.69-1.12.04-.1.11-.35.14.9-.17 1.77-.33.92-1.065 1.535t-1.665.795zm-.7-3.22l.02 3.22q0 .04.01.06-.6 0-1.2-.21-.49-.18-.9-.48zm1.24 6.08l2.1.75q.18.64.71 1.045t1.2.405H16v3H0v-2.96q.83 0 1.415-.585T2 14.04q0-.82-.59-1.41T0 12.04V9h1.05l-.28.8 4.28 1.52Q4 12.47 4 14q0 1.66 1.17 2.83T8 18t2.83-1.17T12 14q0-.04-.01-.1t-.01-.1zm-6.53-2.33l1.48.53q-.11.03-.105.15t.135.13q.18.02.37.03l.56 1.54-.78 2.36-1.31-3.9.41-.03q.09-.01.12-.085t-.01-.145-.13-.07q-.59.05-.96.05-.15 0-.23-.01.19-.29.45-.55zM4.4 14q0-.76.32-1.46l1.71 4.7q-.92-.45-1.475-1.32T4.4 14zm4.19-1.41l1.72.62q.12.29.12.61 0 .28-.28 1.16l-.35 1.2zM11.6 14q0 .98-.485 1.81t-1.305 1.3l1.1-3.18q.07-.2.14-.46l.52.19q.03.17.03.34zm-4.62 3.45l1.08-3.14 1.11 3.03q0 .01.005.025t.015.025q-.6.21-1.19.21-.47 0-1.02-.15z"/></symbol><symbol viewBox="0 0 20 20" id="dashicons-translation"><title>translation</title><path d="M11 7H9.49q-.46 0-.895.195T7.9 7.7L7 5H4.13l-2.39 7h1.69l.74-2H7v4H2q-.82 0-1.41-.59T0 12V5q0-.82.59-1.41T2 3h7q.82 0 1.41.59T11 5v2zM6.51 9H4.49l1-2.93zM10 8h7q.82 0 1.41.59T19 10v7q0 .82-.59 1.41T17 19h-7q-.82 0-1.41-.59T8 17v-7q0-.82.59-1.41T10 8zm7.25 5v-1.08h-3.17V9.75h-1.16v2.17H9.75V13h1.28q.09.66.42 1.36t.86 1.26q-.64.26-1.315.44t-.995.18l.05.26q.05.26.105.62t.045.58q.62 0 1.54-.325t1.74-.825q.83.5 1.77.825t1.57.325q-.01-.14.01-.335t.05-.385.06-.355.06-.275l.02-.11q-.33 0-1.03-.185t-1.35-.445q.51-.56.835-1.26T15.89 13h1.36zm-3.81 1.93q-.76-.7-1.01-1.93h2.09q-.26 1.24-1 1.93l-.04.03q-.03-.02-.04-.03z"/></symbol><symbol viewBox="0 0 20 20" id="dashicons-trash"><title>trash</title><path d="M12 4h3q.41 0 .705.295T16 5v1H3V5q0-.41.295-.705T4 4h3q.17-.86.885-1.43T9.5 2t1.615.57T12 4zM8 4h3q-.16-.43-.585-.715T9.5 3t-.915.285T8 4zM4 7h11v10q0 .41-.295.705T14 18H5q-.41 0-.705-.295T4 17V7zm3 9V9H6v7h1zm3 0V9H9v7h1zm3 0V9h-1v7h1z"/></symbol><symbol viewBox="0 0 20 20" id="dashicons-twitter"><title>twitter</title><path d="M18.94 4.46q-.75 1.12-1.83 1.9.01.15.01.47 0 1.47-.43 2.945T15.38 12.6t-2.1 2.39-2.93 1.66-3.66.62q-3.04 0-5.63-1.65.48.05.88.05 2.55 0 4.55-1.57-1.19-.02-2.125-.73T3.07 11.55q.39.07.69.07.47 0 .96-.13-1.27-.26-2.105-1.27T1.78 7.89v-.04q.8.43 1.66.46-.75-.51-1.19-1.315T1.81 5.25q0-1 .5-1.84Q3.69 5.1 5.655 6.115T9.87 7.24q-.1-.45-.1-.84 0-1.51 1.075-2.585T13.44 2.74q1.6 0 2.68 1.16 1.26-.26 2.33-.89-.43 1.32-1.62 2.02 1.07-.11 2.11-.57z"/></symbol><symbol viewBox="0 0 20 20" id="dashicons-undo"><title>undo</title><path d="M17.23 10.1q.79 1.86.79 3.9t-.79 3.9l-2.78-1.17Q15 15.41 15 14q0-1.42-.55-2.72-.52-1.25-1.5-2.23-.97-.97-2.22-1.5Q9.41 7 8 7v3L2 5.5 8 1v2.98q2.04 0 3.9.79 1.82.77 3.18 2.15 1.38 1.36 2.15 3.18z"/></symbol><symbol viewBox="0 0 20 20" id="dashicons-universal-access-alt"><title>universal-access-alt</title><path d="M19 10q0-1.83-.715-3.495t-1.92-2.87-2.87-1.92T10 1t-3.495.715-2.87 1.92-1.92 2.87T1 10t.715 3.495 1.92 2.87 2.87 1.92T10 19t3.495-.715 2.87-1.92 1.92-2.87T19 10zm-9-7.4q.62 0 1.06.44t.44 1.06-.44 1.065T10 5.61t-1.06-.445T8.5 4.1t.44-1.06T10 2.6zM3.4 7.36q0-.29 1.65-.48t3.3-.24L10 6.6q6.6.11 6.6.76 0 .29-1.12.64t-2.24.56l-1.11.2.59 3.06q.91 5.15.47 5.32-.17.07-.565-.44t-.83-1.285-.845-1.56-.68-1.345l-.27-.56-.96 1.93q-1.77 3.42-2.22 3.26-.17-.14-.13-.965t.23-2.09.405-2.445.385-2.03l.17-.85Q3.4 8.01 3.4 7.36z"/></symbol><symbol viewBox="0 0 20 20" id="dashicons-universal-access"><title>universal-access</title><path d="M10 2.6q.62 0 1.06.44t.44 1.06-.44 1.065T10 5.61t-1.06-.445T8.5 4.1t.44-1.06T10 2.6zM3.4 7.36q0-.29 1.65-.48t3.3-.24L10 6.6q6.6.11 6.6.76 0 .29-1.12.64t-2.24.56l-1.11.2.59 3.06q.91 5.15.47 5.32-.17.07-.565-.44t-.83-1.285-.845-1.56-.68-1.345l-.27-.56-.96 1.93q-1.77 3.42-2.22 3.26-.17-.14-.13-.965t.23-2.09.405-2.445.385-2.03l.17-.85Q3.4 8.01 3.4 7.36z"/></symbol><symbol viewBox="0 0 20 20" id="dashicons-update"><title>update</title><path d="M10.2 3.28q1.73 0 3.235.79t2.475 2.16 1.21 3.05h2.08l-3.5 4-3.5-4h2.32q-.34-1.49-1.545-2.47T10.2 5.83q-1.06 0-1.99.48t-1.55 1.3L4.95 5.66q.98-1.12 2.345-1.75t2.905-.63zm-.4 13.44q-1.3 0-2.495-.465T5.2 14.99t-1.525-1.905-.795-2.365H.8l3.5-4q.59.67 1.755 2t1.745 2H5.48q.34 1.49 1.545 2.47t2.775.98q1.06 0 1.99-.48t1.55-1.3l1.71 1.95q-.98 1.12-2.34 1.75t-2.91.63z"/></symbol><symbol viewBox="0 0 20 20" id="dashicons-upload"><title>upload</title><path d="M8 14V8H5l5-6 5 6h-3v6H8zm-2 2v-6H4v8h12.01v-8H14v6H6z"/></symbol><symbol viewBox="0 0 20 20" id="dashicons-vault"><title>vault</title><path d="M18 17V3q0-.41-.295-.705T17 2H3q-.41 0-.705.295T2 3v14q0 .41.295.705T3 18h14q.41 0 .705-.295T18 17zm-1 0H3V3h14v14zM4.75 4h10.5q.31 0 .53.22t.22.53V6h-1v3h1v2h-1v3h1v1.25q0 .31-.22.53t-.53.22H4.75q-.31 0-.53-.22T4 15.25V4.75q0-.31.22-.53T4.75 4zM13 10q0-1.66-1.17-2.83T9 6 6.17 7.17 5 10t1.17 2.83T9 14t2.83-1.17T13 10zM9 7l.77 1.15q.55.24.89.74T11 10q0 .82-.59 1.41T9 12t-1.41-.59T7 10q0-.61.34-1.11t.89-.74z"/></symbol><symbol viewBox="0 0 20 20" id="dashicons-video-alt"><title>video-alt</title><path d="M8 5q0-.41-.295-.705T7 4H2q-.41 0-.705.295T1 5q0 .42.305.71T2 6h5q.41 0 .705-.295T8 5zm6 5l4-4v10l-4-4v-2zm-1 4V8q0-.41-.295-.705T12 7H4q-.41 0-.705.295T3 8v6q0 .41.295.705T4 15h8q.41 0 .705-.295T13 14z"/></symbol><symbol viewBox="0 0 20 20" id="dashicons-video-alt2"><title>video-alt2</title><path d="M12 13V7q0-.82-.59-1.41T10 5H3q-.82 0-1.41.59T1 7v6q0 .82.59 1.41T3 15h7q.82 0 1.41-.59T12 13zm1-2.5l6 4.5V5l-6 4.5v1z"/></symbol><symbol viewBox="0 0 20 20" id="dashicons-video-alt3"><title>video-alt3</title><path d="M19 15V5q0-.82-.59-1.41T17 3H4q-.82 0-1.41.59T2 5v10q0 .82.59 1.41T4 17h13q.82 0 1.41-.59T19 15zM8 14V6l6 4z"/></symbol><symbol viewBox="0 0 20 20" id="dashicons-visibility"><title>visibility</title><path d="M10 5.09q2.94 0 5.36 1.51T19 10.59q-1.22 2.48-3.64 3.99T10 16.09t-5.36-1.51T1 10.59Q2.22 8.11 4.64 6.6T10 5.09zm2.35 3.1q0-.44-.26-.78t-.66-.46q-.17-.02-.49-.04-.49.04-.83.405t-.34.875q0 .53.38.91t.91.38q.54 0 .915-.38t.375-.91zM10 14.89q2.44 0 4.495-1.21t3.105-3.09q-.69-1.23-1.89-2.085T12.95 7.24q1.09 1.17 1.09 2.76 0 1.67-1.185 2.855T10 14.04t-2.855-1.185T5.96 10q0-1.59 1.09-2.76-1.56.41-2.76 1.265T2.4 10.59q1.05 1.88 3.105 3.09T10 14.89z"/></symbol><symbol viewBox="0 0 20 20" id="dashicons-welcome-add-page"><title>welcome-add-page</title><path d="M17 7V4h-2V2h-3v1H3v15h11V9h1V7h2zm-1-2v1h-2v2h-1V6h-2V5h2V3h1v2h2z"/></symbol><symbol viewBox="0 0 20 20" id="dashicons-welcome-comments"><title>welcome-comments</title><path d="M5 2h10q.82 0 1.41.59T17 4v8q0 .82-.59 1.41T15 14h-2l-5 5v-5H5q-.82 0-1.41-.59T3 12V4q0-.82.59-1.41T5 2zm8.5 8.5L11 8l2.5-2.5-1-1L10 7 7.5 4.5l-1 1L9 8l-2.5 2.5 1 1L10 9l2.5 2.5z"/></symbol><symbol viewBox="0 0 20 20" id="dashicons-welcome-learn-more"><title>welcome-learn-more</title><path d="M10 10L2.54 7.02 3 18H1l.48-11.41L0 6l10-4 10 4zm0-5q-.41 0-.705.145T9 5.5t.295.355T10 6t.705-.145T11 5.5t-.295-.355T10 5zm0 6l5.57-2.23q1.12 1.49 1.36 3.3Q16.41 12 16 12q-1.88 0-3.475.925T10 15.41q-.93-1.56-2.525-2.485T4 12q-.4 0-.93.07.24-1.81 1.36-3.3z"/></symbol><symbol viewBox="0 0 20 20" id="dashicons-welcome-view-site"><title>welcome-view-site</title><path d="M18 14V4q0-.41-.295-.705T17 3H3q-.41 0-.705.295T2 4v10q0 .41.295.705T3 15h14q.41 0 .705-.295T18 14zm-8-8q1.69 0 3.23.79T16 9q-1.23 1.42-2.77 2.21T10 12t-3.23-.79T4 9q1.23-1.42 2.77-2.21T10 6zm2 3q0-.82-.59-1.41T10 7t-1.41.59T8 9t.59 1.41T10 11t1.41-.59T12 9zm2 8h3v1H3v-1h3v-1h8v1z"/></symbol><symbol viewBox="0 0 20 20" id="dashicons-welcome-widgets-menus"><title>welcome-widgets-menus</title><path d="M19 16V3q0-.41-.295-.705T18 2H3q-.41 0-.705.295T2 3v13q0 .41.295.705T3 17h15q.41 0 .705-.295T19 16zM4 4h13v4H4V4zm1 1v2h3V5H5zm4 0v2h3V5H9zm4 0v2h3V5h-3zm-8.5 5q.21 0 .355.145T5 10.5t-.145.355T4.5 11t-.355-.145T4 10.5t.145-.355T4.5 10zM6 10h4v1H6v-1zm6 0h5v5h-5v-5zm-7.5 2q.21 0 .355.145T5 12.5t-.145.355T4.5 13t-.355-.145T4 12.5t.145-.355T4.5 12zM6 12h4v1H6v-1zm7 0v2h3v-2h-3zm-8.5 2q.21 0 .355.145T5 14.5t-.145.355T4.5 15t-.355-.145T4 14.5t.145-.355T4.5 14zM6 14h4v1H6v-1z"/></symbol><symbol viewBox="0 0 20 20" id="dashicons-welcome-write-blog"><title>welcome-write-blog</title><path d="M16.89 1.2l1.41 1.41q.29.29.29.705t-.29.705L14 8.33V18H3V3h10.67l1.8-1.8q.3-.29.715-.295t.705.295zm-5.66 8.48l5.37-5.36-1.42-1.42-5.36 5.37-.71 2.12z"/></symbol><symbol viewBox="0 0 20 20" id="dashicons-wordpress-alt"><title>wordpress-alt</title><path d="M20 10q0-2.03-.795-3.88T17.07 2.93 13.88.795 10 0 6.115.795 2.92 2.93.79 6.12 0 10q0 1.63.505 3.155t1.43 2.755 2.155 2.155 2.755 1.43T10 20q2.03 0 3.88-.79t3.19-2.13 2.135-3.195T20 10zM7.78 15.37L4.37 6.22l1.17-.08q.24-.03.32-.31t-.03-.545-.35-.255q-1.45.11-2.37.11-.37 0-.58-.01 1.21-1.86 3.185-2.94T10 1.11q1.72 0 3.275.61t2.775 1.73q-.58-.09-1.115.335T14.4 5.03q0 .18.045.375t.085.325.16.365.17.315.225.37.215.35q.55.96.55 2.46 0 .66-.35 1.91t-.7 2.17l-.35.92-3.03-8.37q.24-.01.445-.05t.295-.08l.08-.04q.24-.02.32-.33t-.03-.605-.35-.285q-1.44.12-2.38.12-.39 0-.97-.03t-.97-.06l-.39-.03q-.24-.01-.35.29t-.03.61.32.32l.92.08 1.26 3.41zM17.41 10q.12-.32.175-.47t.165-.605.145-.85.035-1.02-.09-1.305q1.05 1.93 1.05 4.25 0 2.45-1.19 4.535t-3.21 3.245q2.47-6.61 2.92-7.78zM6.1 18.09Q3.84 17 2.475 14.81T1.11 10q0-1.96.72-3.59 3.36 9.21 4.27 11.68zm4.03-6.63l2.58 6.98q-1.33.45-2.71.45-1.21 0-2.29-.33.28-.83 1.125-3.295t1.295-3.805z"/></symbol><symbol viewBox="0 0 20 20" id="dashicons-wordpress"><title>wordpress</title><path d="M20 10q0-1.63-.505-3.155t-1.43-2.755-2.155-2.155-2.755-1.43T10 0 6.845.505 4.09 1.935 1.935 4.09.505 6.845 0 10t.505 3.155 1.43 2.755 2.155 2.155 2.755 1.43T10 20t3.155-.505 2.755-1.43 2.155-2.155 1.43-2.755T20 10zM10 1.01q1.83 0 3.495.71t2.87 1.915 1.915 2.87.71 3.495-.71 3.495-1.915 2.87-2.87 1.915-3.495.71-3.495-.71-2.87-1.915-1.915-2.87T1.01 10t.71-3.495 1.915-2.87 2.87-1.915T10 1.01zM8.01 14.82L4.96 6.61l1.05-.08q.2-.02.27-.275t-.025-.49-.305-.225q-1.29.1-2.13.1-.33 0-.52-.01Q4.4 3.97 6.17 3T10 2.03q1.54 0 2.935.55t2.475 1.54q-.52-.07-.985.305T13.96 5.54q0 .29.115.615t.225.525.37.61l.08.13q.5.87.5 2.21 0 .6-.315 1.72t-.635 1.94l-.32.82-2.71-7.5q.21-.01.4-.05t.27-.08l.08-.03q.2-.02.275-.295t-.025-.535-.3-.25q-1.3.11-2.14.11-.35 0-.875-.03L8.08 5.4l-.36-.03q-.2-.01-.3.255t-.025.54.275.285l.84.08 1.12 3.04zm6.02 2.15L16.64 10q.03-.07.07-.195t.15-.535.155-.82.08-1.05-.065-1.21q.94 1.7.94 3.81 0 2.19-1.065 4.05t-2.875 2.92zM2.68 6.77L6.5 17.25q-2.02-.99-3.245-2.945T2.03 10q0-1.79.65-3.23zm7.45 4.53l2.29 6.25q-1.17.42-2.42.42-1.03 0-2.06-.3z"/></symbol><symbol viewBox="0 0 20 20" id="dashicons-yes"><title>yes</title><path d="M14.39 5.5l1.34.94-5.37 7.45H9.02L6 9.88l1.34-1.25 2.35 1.87z"/></symbol></svg>